<?xml version="1.0" standalone="no"?>
<!DOCTYPE svg PUBLIC "-//W3C//DTD SVG 1.1//EN" "http://www.w3.org/Graphics/SVG/1.1/DTD/svg11.dtd" >
<svg>
<metadata>
Created by FontForge 20090622 at Tue Jul 19 15:41:55 2016
 By deploy user
Copyright [c] 1997, 2002 Luc(as) de Groot, published by LucasFonts.
</metadata>
<defs>
<font id="Corpid-Bold" horiz-adv-x="550" >
  <font-face 
    font-family="Corpid"
    font-weight="700"
    font-stretch="normal"
    units-per-em="1000"
    panose-1="2 0 8 3 0 0 0 0 0 0"
    ascent="800"
    descent="-200"
    x-height="514"
    cap-height="698"
    bbox="-96 -221 1140 897"
    underline-thickness="94"
    underline-position="-175"
    unicode-range="U+0020-U+FB02"
  />
<missing-glyph 
 />
    <glyph glyph-name=".notdef" 
 />
    <glyph glyph-name=".null" horiz-adv-x="0" 
 />
    <glyph glyph-name="nonmarkingreturn" horiz-adv-x="333" 
 />
    <glyph glyph-name="breve" unicode="&#x2d8;" horiz-adv-x="315" 
d="M310 750q0 -78 -39.5 -122t-116.5 -44t-115.5 44.5t-38.5 121.5h82q0 -37 18.5 -59t54.5 -22q73 0 73 81h82z" />
    <glyph glyph-name="dotaccent" unicode="&#x2d9;" horiz-adv-x="294" 
d="M226 668q0 -34 -22 -55.5t-57 -21.5t-57 21.5t-22 55.5t22 55.5t57 21.5t57 -21.5t22 -55.5z" />
    <glyph glyph-name="ring" unicode="&#x2da;" horiz-adv-x="294" 
d="M238 686q0 -49 -32 -78.5t-89 -29.5q-58 0 -87.5 27.5t-29.5 74.5q0 51 31.5 80t89.5 29q57 0 87 -27t30 -76zM164 682q0 53 -46 53q-44 0 -44 -50q0 -53 46 -53q44 0 44 50z" />
    <glyph glyph-name="hungarumlaut" unicode="&#x2dd;" horiz-adv-x="422" 
d="M408 719l-143 -135l-65 37l118 151zM201 723l-137 -139l-64 37l112 155z" />
    <glyph glyph-name="ogonek" unicode="&#x2db;" horiz-adv-x="310" 
d="M284 -183q-46 -25 -106 -25q-54 0 -83.5 22.5t-29.5 64.5q0 65 53 121h101q-52 -48 -52 -96q0 -38 42 -38q25 0 53 12z" />
    <glyph glyph-name="caron" unicode="&#x2c7;" horiz-adv-x="368" 
d="M311 720l-155 -140l-156 139l48 58l109 -86l109 86z" />
    <glyph glyph-name="dotlessi" unicode="&#x131;" horiz-adv-x="296" 
d="M225 0h-128v417h-81v97h209v-514z" />
    <glyph glyph-name="fraction" unicode="&#x2044;" horiz-adv-x="389" 
d="M488 677l-511 -704l-73 49l511 705z" />
    <glyph glyph-name="fi" unicode="&#xfb01;" horiz-adv-x="621" 
d="M562 667q0 -34 -22 -55.5t-57 -21.5t-57 21.5t-22 55.5t22 55.5t57 21.5t57 -21.5t22 -55.5zM547 0h-128v417h-195v-417h-128v417h-76v97h76v44q0 101 38 152.5t133 51.5q43 0 80 -8v-91h-46q-47 0 -62 -24.5t-15 -72.5v-52h323v-514z" />
    <glyph glyph-name="fl" unicode="&#xfb02;" horiz-adv-x="635" 
d="M617 0q-42 -11 -80 -11q-123 0 -123 121v548q-41 5 -90 5q-59 0 -79.5 -27.5t-20.5 -82.5v-39h102v-97h-102v-417h-128v417h-76v97h76v35q0 109 50 161t179 52q95 0 217 -15v-604q0 -51 40 -51h35v-92z" />
    <glyph glyph-name="Lslash" unicode="&#x141;" horiz-adv-x="477" 
d="M464 0h-375v341l-61 -36l-21 91l82 48v254h135v-181l111 65l21 -91l-132 -77v-305h240v-109z" />
    <glyph glyph-name="lslash" unicode="&#x142;" horiz-adv-x="305" 
d="M280 527l-73 -43v-352q0 -46 40 -46h36v-86q-36 -9 -68 -9q-66 0 -100.5 23t-34.5 83v319l-52 -32l-21 89l73 43v234h127v-166l52 32z" />
    <glyph glyph-name="Zcaron" unicode="&#x17d;" horiz-adv-x="526" 
d="M494 0h-466v104l310 488h-297v106h447v-107l-308 -485h314v-106zM420 834l-152 -89l-154 87l33 62l121 -57l120 57z" />
    <glyph glyph-name="zcaron" unicode="&#x17e;" horiz-adv-x="476" 
d="M440 0h-397v98l231 313h-218v103h369v-99l-230 -312h245v-103zM397 720l-155 -140l-156 139l48 58l109 -86l109 86z" />
    <glyph glyph-name="space" unicode=" " horiz-adv-x="270" 
 />
    <glyph glyph-name="exclam" unicode="!" horiz-adv-x="360" 
d="M270 750l-15 -542h-110l-15 542h140zM279 68q0 -34 -22.5 -56.5t-56.5 -22.5t-56.5 22.5t-22.5 56.5t22.5 57t56.5 23t56.5 -23t22.5 -57z" />
    <glyph glyph-name="quotedbl" unicode="&#x22;" horiz-adv-x="478" 
d="M389 750l-14 -277h-91l-14 277h119zM186 750l-14 -277h-91l-14 277h119z" />
    <glyph glyph-name="numbersign" unicode="#" 
d="M523 425h-82l-17 -142h72v-89h-82l-23 -194h-100l23 194h-114l-23 -194h-100l23 194h-71v89h81l17 142h-73v89h84l22 184h100l-22 -184h114l22 184h100l-22 -184h71v-89zM341 425h-114l-17 -142h114z" />
    <glyph glyph-name="dollar" unicode="$" 
d="M495 205q0 -80 -48 -130t-122 -68v-123h-98v114q-84 1 -173 32l23 104q83 -31 168 -31q53 0 84 23t31 62q0 28 -17 47t-43.5 29.5t-59 18.5t-65.5 20t-59.5 29.5t-43.5 51t-17 79.5q0 72 47 122t125 62v108h98v-105q60 -4 126 -28l-26 -96q-63 24 -136 24
q-50 0 -74 -20.5t-24 -53.5q0 -25 17 -42t43.5 -26.5t59 -17.5t65 -21t59 -31t43.5 -52t17 -81z" />
    <glyph glyph-name="percent" unicode="%" horiz-adv-x="817" 
d="M779 170q0 -93 -44 -138.5t-122 -45.5q-159 0 -159 184q0 90 43 137t123 47q82 0 120.5 -46t38.5 -138zM700 677l-511 -704l-73 49l511 705zM363 528q0 -93 -44 -138t-123 -45q-158 0 -158 183q0 89 43 136.5t122 47.5q83 0 121.5 -46t38.5 -138zM681 170q0 61 -16 84
t-48 23q-35 0 -49.5 -25.5t-14.5 -81.5q0 -59 15 -83t48 -24q36 0 50.5 27t14.5 80zM264 528q0 61 -15.5 84.5t-47.5 23.5q-35 0 -50 -26t-15 -82q0 -58 15 -82.5t48 -24.5q36 0 50.5 27t14.5 80z" />
    <glyph glyph-name="ampersand" unicode="&#x26;" horiz-adv-x="736" 
d="M712 77l-66 -95l-122 89q-91 -85 -222 -85q-115 0 -179.5 51.5t-64.5 143.5q0 111 121 194q-73 91 -73 165q0 78 52 125t140 47q76 0 129.5 -39t53.5 -113q0 -57 -32 -99t-110 -93q61 -62 166 -145q34 71 34 166h114q-3 -131 -59 -230q61 -45 118 -82zM367 550
q0 33 -18.5 53.5t-55.5 20.5q-35 0 -54 -22.5t-19 -55.5q0 -45 54 -112q51 34 72 60t21 56zM438 135q-127 100 -193 169q-60 -49 -60 -108q0 -53 34 -82.5t97 -29.5q71 0 122 51z" />
    <glyph glyph-name="quotesingle" unicode="'" horiz-adv-x="256" 
d="M189 750l-14 -277h-94l-14 277h122z" />
    <glyph glyph-name="parenleft" unicode="(" horiz-adv-x="342" 
d="M286 -160l-99 -38q-127 236 -127 488q0 253 127 489l99 -38q-94 -219 -94 -450t94 -451z" />
    <glyph glyph-name="parenright" unicode=")" horiz-adv-x="342" 
d="M282 291q0 -256 -127 -489l-99 38q94 215 94 450q0 234 -94 451l99 38q127 -233 127 -488z" />
    <glyph glyph-name="asterisk" unicode="*" 
d="M479 501l-55 -94l-116 90l19 -146h-109l20 145l-117 -89l-55 94l137 56l-137 56l55 94l117 -89l-20 146h109l-19 -146l116 89l55 -94l-136 -55z" />
    <glyph glyph-name="plus" unicode="+" 
d="M514 260h-185v-202h-108v202h-185v100h185v202h108v-202h185v-100z" />
    <glyph glyph-name="comma" unicode="," horiz-adv-x="283" 
d="M142 153q51 0 72 -49q29 -67 -27 -158q-37 -60 -107 -117l-54 50q67 72 67 108q0 12 -14.5 36.5t-14.5 50.5q0 35 21 57t57 22z" />
    <glyph glyph-name="hyphen" unicode="-" horiz-adv-x="304" 
d="M300 217h-262v104h262v-104z" />
    <glyph glyph-name="period" unicode="." horiz-adv-x="283" 
d="M223 73q0 -35 -23.5 -58.5t-57.5 -23.5q-35 0 -58.5 23.5t-23.5 58.5t23.5 58.5t58.5 23.5q34 0 57.5 -23.5t23.5 -58.5z" />
    <glyph glyph-name="slash" unicode="/" horiz-adv-x="467" 
d="M454 771l-334 -934l-116 35l333 934z" />
    <glyph glyph-name="zerooldstyle" 
d="M523 296q0 -140 -61 -225t-190 -85q-134 0 -190 80t-56 228q0 64 13.5 117t42 96.5t79 68t117.5 24.5q245 0 245 -304zM388 291q0 106 -26 158.5t-89 52.5q-113 0 -113 -203q0 -118 28.5 -166.5t90.5 -48.5q64 0 86.5 51.5t22.5 155.5z" />
    <glyph glyph-name="oneoldstyle" 
d="M501 0h-418v104h153v356l-134 -69l-36 78l186 121h117v-486h132v-104z" />
    <glyph glyph-name="twooldstyle" 
d="M505 0h-461v100l139 109q85 66 113.5 107.5t28.5 84.5q0 41 -26.5 66t-76.5 25q-69 0 -144 -31l-21 104q97 35 193 35q108 0 167.5 -47.5t59.5 -129.5q0 -68 -37 -123.5t-132 -125.5l-86 -66h283v-108z" />
    <glyph glyph-name="threeoldstyle" 
d="M495 90q0 -104 -76 -160t-198 -56q-106 0 -180 15v96q87 -7 151 -7q73 0 111.5 29t38.5 79q0 111 -165 111h-58v99h61q75 0 114 28.5t39 76.5q0 94 -111 94q-69 0 -146 -31l-20 99q101 37 196 37q107 0 166 -48t59 -129q0 -60 -36.5 -105.5t-99.5 -60.5v-2
q69 -4 111.5 -51t42.5 -114z" />
    <glyph glyph-name="fouroldstyle" 
d="M526 32h-81v-144h-129v144h-297v117l244 437h182v-447h81v-107zM316 139v333h-2l-188 -333h190z" />
    <glyph glyph-name="fiveoldstyle" 
d="M502 114q0 -113 -76 -176.5t-207 -63.5q-86 0 -170 14v98q76 -8 156 -8q155 0 155 124q0 115 -151 115q-54 0 -134 -10l6 379h371v-112h-259l-3 -158q34 3 76 3q114 0 175 -52.5t61 -152.5z" />
    <glyph glyph-name="sixoldstyle" 
d="M516 229q0 -103 -64 -173t-173 -70q-125 0 -180.5 85t-55.5 250q0 389 295 389q78 0 143 -24l-21 -90q-60 19 -124 19q-83 0 -123 -60t-42 -152v-2q67 45 145 45q200 0 200 -217zM385 220q0 61 -22.5 92.5t-73.5 31.5q-62 0 -116 -36q0 -119 26.5 -170.5t81.5 -51.5
q50 0 77 37.5t27 96.5z" />
    <glyph glyph-name="sevenoldstyle" 
d="M505 472l-184 -413q-47 -103 -114 -186l-97 48q50 84 105 213l144 340h-312v112h458v-114z" />
    <glyph glyph-name="eightoldstyle" 
d="M519 185q0 -96 -64.5 -147.5t-184.5 -51.5q-241 0 -241 181q0 110 142 187q-121 66 -121 175q0 82 59 132.5t170 50.5q108 0 164 -46.5t56 -123.5q0 -102 -123 -173q143 -74 143 -184zM370 528q0 42 -25 65t-71 23q-47 0 -71 -23.5t-24 -61.5q0 -34 24 -61.5t78 -55.5
q89 54 89 114zM387 175q0 40 -28.5 68t-94.5 62q-103 -62 -103 -128q0 -93 118 -93q51 0 79.5 24.5t28.5 66.5z" />
    <glyph glyph-name="nineoldstyle" 
d="M506 265q0 -85 -15 -153t-48.5 -123.5t-92.5 -85.5t-140 -30q-71 0 -161 16l9 95q86 -14 153 -14q84 0 123 56t45 157l-2 2q-62 -45 -144 -45q-200 0 -200 219q0 105 63.5 173t172.5 68q126 0 181.5 -85t55.5 -250zM376 277q0 120 -26.5 172t-81.5 52q-52 0 -77.5 -36.5
t-25.5 -93.5q0 -64 21.5 -97t73.5 -33q58 0 116 36z" />
    <glyph glyph-name="colon" unicode=":" horiz-adv-x="303" 
d="M243 428q0 -35 -23.5 -58.5t-57.5 -23.5q-35 0 -58.5 23.5t-23.5 58.5t23.5 58t58.5 23q34 0 57.5 -23.5t23.5 -57.5zM243 73q0 -35 -23.5 -58.5t-57.5 -23.5q-35 0 -58.5 23.5t-23.5 58.5t23.5 58.5t58.5 23.5q34 0 57.5 -23.5t23.5 -58.5z" />
    <glyph glyph-name="semicolon" unicode=";" horiz-adv-x="303" 
d="M243 428q0 -35 -23.5 -58.5t-57.5 -23.5q-35 0 -58.5 23.5t-23.5 58.5t23.5 58t58.5 23q34 0 57.5 -23.5t23.5 -57.5zM162 153q51 0 72 -49q29 -67 -27 -158q-37 -60 -107 -117l-54 50q67 72 67 108q0 12 -14.5 36.5t-14.5 50.5q0 35 21 57t57 22z" />
    <glyph glyph-name="less" unicode="&#x3c;" 
d="M487 38l-445 222v103l445 221v-117l-329 -156l329 -154v-119z" />
    <glyph glyph-name="equal" unicode="=" 
d="M498 370h-446v99h446v-99zM498 153h-446v99h446v-99z" />
    <glyph glyph-name="greater" unicode="&#x3e;" 
d="M508 260l-445 -222v117l329 154l-329 156v119l445 -221v-103z" />
    <glyph glyph-name="question" unicode="?" horiz-adv-x="469" 
d="M423 581q0 -46 -18.5 -85.5t-44 -68.5l-50.5 -58.5t-40 -70.5t-10 -90h-113q-9 56 2 102t33.5 76.5t46 56.5t41 55.5t17.5 61.5q0 97 -115 97q-56 0 -109 -7v95q66 16 129 16q231 0 231 -180zM284 68q0 -34 -22.5 -56.5t-56.5 -22.5t-57 22.5t-23 56.5t23 57t57 23
t56.5 -23t22.5 -57z" />
    <glyph glyph-name="at" unicode="@" horiz-adv-x="878" 
d="M784 -77q-124 -59 -274 -59q-196 0 -314.5 116t-118.5 301q0 201 125.5 317t320.5 116q131 0 193.5 -55t62.5 -144v-358h-93l-12 61q-60 -74 -162 -74q-80 0 -127.5 41t-47.5 110q0 90 65 130.5t191 40.5h62v38q0 57 -34 85.5t-113 28.5q-137 0 -225.5 -88t-88.5 -240
q0 -145 88 -235.5t243 -90.5q128 0 233 51zM655 293v92h-63q-128 0 -128 -77q0 -33 19.5 -52t56.5 -19q59 0 115 56z" />
    <glyph glyph-name="A" unicode="A" horiz-adv-x="683" 
d="M665 0h-152l-23 79l-24 84h-266q-32 -103 -48 -163h-134q104 345 241 698h160q137 -345 246 -698zM436 266q-31 98 -103 301l-1 -1q-65 -182 -103 -300h207z" />
    <glyph glyph-name="B" unicode="B" horiz-adv-x="606" 
d="M567 211q0 -106 -75 -158.5t-192 -52.5h-221v698h211q114 0 174.5 -44t60.5 -131q0 -51 -26 -89t-70 -57q60 -10 99 -55t39 -111zM391 505q0 91 -109 91h-72v-188h84q49 0 73 26t24 71zM427 203q0 106 -133 106h-84v-206h103q50 0 82 26.5t32 73.5z" />
    <glyph glyph-name="C" unicode="C" horiz-adv-x="585" 
d="M564 29q-85 -41 -183 -41q-158 0 -246.5 90t-88.5 261q0 174 90.5 272.5t241.5 98.5q101 0 183 -39l-40 -104q-66 30 -140 30q-89 0 -140.5 -68.5t-51.5 -179.5q0 -123 55 -185t152 -62q68 0 135 30z" />
    <glyph glyph-name="D" unicode="D" horiz-adv-x="707" 
d="M664 359q0 -178 -95.5 -268.5t-266.5 -90.5h-223v698h237q167 0 257.5 -87.5t90.5 -251.5zM524 352q0 110 -53 175t-164 65h-95v-485h94q218 0 218 245z" />
    <glyph glyph-name="E" unicode="E" horiz-adv-x="547" 
d="M489 0h-410v698h406v-106h-273v-179h236v-104h-236v-203h277v-106z" />
    <glyph glyph-name="F" unicode="F" horiz-adv-x="504" 
d="M463 592h-250v-192h223v-105h-223v-295h-134v698h384v-106z" />
    <glyph glyph-name="G" unicode="G" horiz-adv-x="696" 
d="M630 652l-41 -102q-90 49 -186 49q-103 0 -162 -68.5t-59 -181.5q0 -120 58 -184.5t161 -64.5q46 0 88 12v263h134v-350q-104 -38 -229 -38q-167 0 -259 94t-92 260q0 171 96.5 270t262.5 99q123 0 228 -58z" />
    <glyph glyph-name="H" unicode="H" horiz-adv-x="702" 
d="M623 0h-134v304h-276v-304h-134v698h134v-279h276v279h134v-698z" />
    <glyph glyph-name="I" unicode="I" horiz-adv-x="292" 
d="M213 0h-134v698h134v-698z" />
    <glyph glyph-name="J" unicode="J" horiz-adv-x="354" 
d="M275 210q0 -53 -7 -90.5t-24.5 -69.5t-52.5 -48t-88 -16q-43 0 -86 10v105h46q43 0 60 21.5t17 76.5v499h135v-488z" />
    <glyph glyph-name="K" unicode="K" horiz-adv-x="633" 
d="M619 0h-166l-197 327l-43 -50v-277h-134v698h134v-273l233 273h167l-260 -279z" />
    <glyph glyph-name="L" unicode="L" horiz-adv-x="467" 
d="M454 0h-375v698h134v-589h241v-109z" />
    <glyph glyph-name="M" unicode="M" horiz-adv-x="943" 
d="M873 0h-136q-3 315 -30 557h-1l-179 -557h-126l-176 557h-2q-27 -282 -28 -557h-124q3 343 48 698h194l158 -500h2l160 500h194q41 -341 46 -698z" />
    <glyph glyph-name="N" unicode="N" horiz-adv-x="723" 
d="M644 0h-171l-273 517h-2v-517h-119v698h177l267 -507h2v507h119v-698z" />
    <glyph glyph-name="O" unicode="O" horiz-adv-x="770" 
d="M724 356q0 -174 -88 -272t-255 -98q-166 0 -250.5 90.5t-84.5 268.5q0 169 89.5 268t252.5 99q162 0 249 -92t87 -264zM582 344q0 257 -202 257q-101 0 -146.5 -67.5t-45.5 -176.5q0 -126 46.5 -193t155.5 -67q102 0 147 68t45 179z" />
    <glyph glyph-name="P" unicode="P" horiz-adv-x="585" 
d="M549 486q0 -116 -69 -178t-195 -62h-72v-246h-134v698h209q53 0 92 -8q80 -16 124.5 -68.5t44.5 -135.5zM408 476q0 90 -74 111q-24 7 -56 7h-65v-244h79q57 0 86.5 34t29.5 92z" />
    <glyph glyph-name="Q" unicode="Q" horiz-adv-x="774" 
d="M765 -5l-71 -72l-120 113q-78 -50 -193 -50q-166 0 -250.5 90.5t-84.5 268.5q0 169 89.5 268t252.5 99q162 0 249 -92t87 -264q0 -158 -72 -253zM582 344q0 257 -202 257q-101 0 -146.5 -67.5t-45.5 -176.5q0 -126 46.5 -193t155.5 -67q55 0 93 27l-107 101l71 73
l104 -100q31 56 31 146z" />
    <glyph glyph-name="R" unicode="R" horiz-adv-x="613" 
d="M585 0h-156l-150 289h-66v-289h-134v698h225q114 0 178 -48.5t64 -140.5q0 -73 -36.5 -120t-98.5 -68zM405 496q0 43 -27.5 70.5t-87.5 27.5h-77v-204h66q62 0 94 29t32 77z" />
    <glyph glyph-name="S" unicode="S" horiz-adv-x="522" 
d="M485 210q0 -109 -74 -166.5t-194 -57.5q-82 0 -172 25l15 111q80 -26 156 -26q127 0 127 96q0 41 -29.5 64t-99.5 51q-83 34 -124.5 79.5t-41.5 123.5q0 94 67.5 148t173.5 54q85 0 154 -25l-20 -104q-61 22 -133 22q-49 0 -74.5 -21t-25.5 -58q0 -41 26.5 -63.5
t84.5 -46.5q36 -15 56.5 -25t48.5 -28.5t42.5 -37.5t25.5 -49t11 -66z" />
    <glyph glyph-name="T" unicode="T" horiz-adv-x="546" 
d="M535 590h-195v-590h-134v590h-195v108h524v-108z" />
    <glyph glyph-name="U" unicode="U" horiz-adv-x="718" 
d="M640 262q0 -130 -73.5 -202.5t-209.5 -72.5q-133 0 -206 67.5t-73 198.5v445h134v-434q0 -82 40 -125t109 -43t108.5 42.5t39.5 119.5v440h131v-436z" />
    <glyph glyph-name="V" unicode="V" horiz-adv-x="663" 
d="M653 698q-96 -333 -237 -698h-164q-138 343 -239 698h154q66 -265 175 -559h1q100 286 172 559h138z" />
    <glyph glyph-name="W" unicode="W" horiz-adv-x="1019" 
d="M990 698q-60 -308 -175 -698h-177l-129 511h-2l-124 -511h-180q-110 367 -172 698h149q49 -292 123 -553h1l134 553h153l140 -553h1q84 318 122 553h136z" />
    <glyph glyph-name="X" unicode="X" horiz-adv-x="639" 
d="M629 0h-167l-146 265l-147 -265h-161l218 362l-197 336h161l132 -237l130 237h156l-197 -333z" />
    <glyph glyph-name="Y" unicode="Y" horiz-adv-x="598" 
d="M592 698q-96 -232 -224 -417v-281h-134v281q-127 189 -228 417h154q60 -158 148 -300q85 142 137 300h147z" />
    <glyph glyph-name="Z" unicode="Z" horiz-adv-x="526" 
d="M494 0h-466v104l310 488h-297v106h447v-107l-308 -485h314v-106z" />
    <glyph glyph-name="bracketleft" unicode="[" horiz-adv-x="356" 
d="M304 -180h-217v942h217v-92h-96v-758h96v-92z" />
    <glyph glyph-name="backslash" unicode="\" horiz-adv-x="467" 
d="M463 -128l-116 -35l-334 934l116 35z" />
    <glyph glyph-name="bracketright" unicode="]" horiz-adv-x="356" 
d="M268 -180h-216v92h96v758h-96v92h216v-942z" />
    <glyph glyph-name="asciicircum" unicode="^" 
d="M517 355h-130l-111 247l-103 -247h-127l155 343h155z" />
    <glyph glyph-name="underscore" unicode="_" 
d="M550 -221h-550v93h550v-93z" />
    <glyph glyph-name="grave" unicode="`" horiz-adv-x="294" 
d="M211 625l-67 -46l-144 136l92 58z" />
    <glyph glyph-name="a" unicode="a" horiz-adv-x="553" 
d="M483 0h-97l-10 49q-69 -63 -162 -63q-81 0 -128.5 40.5t-47.5 116.5q0 167 257 167h62v27q0 50 -23.5 72.5t-83.5 22.5q-76 0 -151 -30l-22 93q90 33 191 33q215 0 215 -179v-349zM357 130v97h-64q-127 0 -127 -77q0 -33 20 -52t58 -19q57 0 113 51z" />
    <glyph glyph-name="b" unicode="b" horiz-adv-x="604" 
d="M562 278q0 -131 -69.5 -209t-208.5 -78q-102 0 -214 34v725h128v-288q69 66 158 66q102 0 154 -70t52 -180zM428 263q0 161 -99 161q-67 0 -131 -76v-236q47 -20 95 -20q66 0 100.5 44t34.5 127z" />
    <glyph glyph-name="c" unicode="c" horiz-adv-x="455" 
d="M429 19q-74 -31 -149 -31q-119 0 -179.5 68.5t-60.5 190.5q0 132 69 205t185 73q74 0 132 -27l-28 -95q-47 20 -94 20q-65 0 -97.5 -43.5t-32.5 -121.5q0 -164 132 -164q53 0 101 21z" />
    <glyph glyph-name="d" unicode="d" horiz-adv-x="604" 
d="M533 0h-97l-10 67q-76 -81 -175 -81q-104 0 -157 69.5t-53 180.5q0 127 67 207t198 80q53 0 99 -10v237h128v-750zM405 166v235q-42 21 -97 21q-65 0 -98.5 -44t-33.5 -127q0 -161 100 -161q65 0 129 76z" />
    <glyph glyph-name="e" unicode="e" horiz-adv-x="560" 
d="M515 289q0 -20 -2 -60h-340q0 -71 33 -107t110 -36q86 0 169 22l13 -93q-97 -29 -202 -29q-130 0 -192.5 65.5t-62.5 200.5q0 129 66 202.5t187 73.5q112 0 166.5 -62.5t54.5 -176.5zM388 312q2 58 -23.5 91.5t-77.5 33.5q-54 0 -83 -37t-31 -88h215z" />
    <glyph glyph-name="f" unicode="f" horiz-adv-x="348" 
d="M347 663h-48q-45 0 -60 -24.5t-15 -72.5v-52h106v-97h-106v-417h-128v417h-76v97h76v47q0 99 38 150t133 51q43 0 80 -8v-91z" />
    <glyph glyph-name="g" unicode="g" horiz-adv-x="604" 
d="M533 17q0 -122 -64.5 -178t-197.5 -56q-84 0 -159 15l4 95q69 -9 150 -9q75 0 107 25t32 90v60q-66 -63 -152 -63q-105 0 -158.5 69.5t-53.5 178.5q0 126 70.5 203.5t208.5 77.5q100 0 213 -34v-474zM405 168v237q-40 20 -95 20q-65 0 -99.5 -44t-34.5 -124
q0 -157 104 -157q66 0 125 68z" />
    <glyph glyph-name="h" unicode="h" horiz-adv-x="605" 
d="M537 0h-128v298q0 125 -84 125q-37 0 -63.5 -16.5t-63.5 -55.5v-351h-128v750h128v-292q72 70 160 70q91 0 135 -54.5t44 -149.5v-324z" />
    <glyph glyph-name="i" unicode="i" horiz-adv-x="296" 
d="M237 667q0 -34 -22 -55.5t-57 -21.5t-57 21.5t-22 55.5t22 55.5t57 21.5t57 -21.5t22 -55.5zM225 0h-128v417h-81v97h209v-514z" />
    <glyph glyph-name="j" unicode="j" horiz-adv-x="283" 
d="M228 667q0 -34 -22 -55.5t-57 -21.5t-57 21.5t-22 55.5t22 55.5t57 21.5t57 -21.5t22 -55.5zM213 -8q0 -111 -42 -160.5t-122 -49.5q-40 0 -72 8l4 100h38q34 0 50 21.5t16 69.5v533h128v-522z" />
    <glyph glyph-name="k" unicode="k" horiz-adv-x="552" 
d="M540 0h-158l-146 244l-38 -38v-206h-128v750h128v-412l161 176h161l-190 -184z" />
    <glyph glyph-name="l" unicode="l" horiz-adv-x="291" 
d="M273 0q-42 -11 -80 -11q-123 0 -123 121v640h128v-607q0 -51 40 -51h35v-92z" />
    <glyph glyph-name="m" unicode="m" horiz-adv-x="906" 
d="M838 0h-128v297q0 65 -15 95.5t-60 30.5q-36 0 -59 -15.5t-58 -56.5v-351h-128v298q0 64 -15 94.5t-60 30.5q-36 0 -59 -15.5t-58 -56.5v-351h-128v514h98l12 -66q38 42 75 61t90 19q113 0 150 -86q40 46 78 66t92 20q173 0 173 -204v-324z" />
    <glyph glyph-name="n" unicode="n" horiz-adv-x="605" 
d="M537 0h-128v298q0 125 -84 125q-37 0 -63.5 -16.5t-63.5 -55.5v-351h-128v514h98l12 -65q42 42 81.5 60.5t92.5 18.5q94 0 138.5 -54t44.5 -150v-324z" />
    <glyph glyph-name="o" unicode="o" horiz-adv-x="611" 
d="M571 263q0 -124 -72 -200.5t-199 -76.5q-130 0 -195 70.5t-65 191.5q0 129 71 204.5t200 75.5q126 0 193 -70.5t67 -194.5zM437 251q0 176 -133 176q-64 0 -97 -45.5t-33 -120.5q0 -86 32 -129.5t103 -43.5q63 0 95.5 45t32.5 118z" />
    <glyph glyph-name="p" unicode="p" horiz-adv-x="604" 
d="M562 278q0 -127 -67 -207t-198 -80q-47 0 -99 10v-205h-128v718h98l10 -67q76 81 175 81q104 0 156.5 -69.5t52.5 -180.5zM428 263q0 161 -101 161q-63 0 -129 -76v-235q44 -21 97 -21q66 0 99.5 44t33.5 127z" />
    <glyph glyph-name="q" unicode="q" horiz-adv-x="604" 
d="M533 -204h-128v255q-69 -65 -157 -65q-102 0 -154.5 70t-52.5 180q0 131 70 209t209 78q101 0 213 -34v-693zM405 166v236q-45 20 -95 20q-66 0 -100 -44t-34 -127q0 -161 98 -161q68 0 131 76z" />
    <glyph glyph-name="r" unicode="r" horiz-adv-x="389" 
d="M377 521l-15 -121q-26 7 -53 7q-24 0 -48.5 -20.5t-62.5 -68.5v-318h-128v514h100l12 -86q40 56 68 78t66 22q34 0 61 -7z" />
    <glyph glyph-name="s" unicode="s" horiz-adv-x="439" 
d="M404 156q0 -77 -57 -123.5t-154 -46.5q-76 0 -151 20l18 102q67 -23 129 -23q38 0 59.5 15t21.5 44q0 25 -19.5 39.5t-67.5 30.5q-71 22 -104.5 55.5t-33.5 95.5q0 75 53 119t147 44q67 0 129 -18l-15 -97q-55 19 -109 19q-38 0 -55.5 -17t-17.5 -40q0 -24 19 -37.5
t69 -30.5q74 -23 106.5 -57t32.5 -94z" />
    <glyph glyph-name="t" unicode="t" horiz-adv-x="372" 
d="M334 1q-34 -12 -100 -12q-141 0 -141 145v283h-74v97h74l30 149h98v-149h113v-97h-113v-244q0 -49 15.5 -65.5t56.5 -16.5h41v-90z" />
    <glyph glyph-name="u" unicode="u" horiz-adv-x="605" 
d="M534 0h-97l-12 65q-42 -42 -81.5 -60.5t-93.5 -18.5q-182 0 -182 204v324h128v-298q0 -125 84 -125q36 0 62.5 16.5t63.5 55.5v351h128v-514z" />
    <glyph glyph-name="v" unicode="v" horiz-adv-x="514" 
d="M498 514q-67 -263 -168 -514h-145q-104 252 -168 514h134q43 -190 113 -381h1q67 188 109 381h124z" />
    <glyph glyph-name="w" unicode="w" horiz-adv-x="823" 
d="M803 514q-57 -253 -153 -514h-143l-98 350h-1l-93 -350h-147q-97 275 -147 514h132q36 -184 95 -383h1l101 383h130l105 -383h1q61 211 93 383h124z" />
    <glyph glyph-name="x" unicode="x" horiz-adv-x="536" 
d="M518 0h-150l-100 186l-104 -186h-146l160 264l-147 250h147l94 -172l95 172h137l-142 -244z" />
    <glyph glyph-name="y" unicode="y" horiz-adv-x="514" 
d="M498 514q-83 -342 -166 -514q-58 -122 -113 -169.5t-123 -47.5q-29 0 -69 12l3 94h60q28 0 51 24t55 87q-114 252 -177 514h134q43 -182 116 -384h2q65 187 103 384h124z" />
    <glyph glyph-name="z" unicode="z" horiz-adv-x="476" 
d="M440 0h-397v98l231 313h-218v103h369v-99l-230 -312h245v-103z" />
    <glyph glyph-name="braceleft" unicode="{" horiz-adv-x="374" 
d="M333 -178q-29 -8 -63 -8q-79 0 -110 49t-31 154v117q0 57 -23.5 88.5t-68.5 32.5v95q45 1 68.5 33t23.5 88v94q0 105 31 154t110 49q34 0 63 -8v-90h-35q-29 0 -39.5 -21t-10.5 -85v-90q0 -147 -109 -171q109 -24 109 -171v-114q0 -64 10.5 -85t39.5 -21h35v-90z" />
    <glyph glyph-name="bar" unicode="|" horiz-adv-x="522" 
d="M321 -204h-120v966h120v-966z" />
    <glyph glyph-name="braceright" unicode="}" horiz-adv-x="374" 
d="M357 255q-91 -3 -91 -121v-117q0 -105 -31.5 -154t-110.5 -49q-35 0 -62 8v90h34q29 0 40 21t11 85v114q0 147 109 171q-109 24 -109 171v90q0 64 -11 85t-40 21h-34v90q27 8 62 8q80 0 111 -49t31 -154v-94q0 -56 23.5 -88t67.5 -33v-95z" />
    <glyph glyph-name="asciitilde" unicode="~" 
d="M520 589q0 -85 -40 -132.5t-106 -47.5q-42 0 -68.5 14.5t-50.5 41.5q-6 6 -19 21t-18.5 19.5t-16 10t-22.5 5.5q-51 0 -53 -92h-94v19q0 84 40 131t106 47q69 0 119 -54l19 -21.5t18.5 -19.5t16 -10.5t22.5 -5.5q51 0 53 93h94v-19z" />
    <glyph glyph-name="Euro" unicode="&#x20ac;" 
d="M508 22q-67 -35 -156 -35q-115 0 -180 54t-85 167h-70v79h63q-2 34 -2 54q0 18 2 56h-63v78h72q23 115 90 175.5t175 60.5q81 0 148 -37l-35 -91q-53 24 -108 24q-113 0 -139 -132h174v-78h-184q-2 -30 -2 -49q0 -23 2 -61h184v-79h-172q22 -117 144 -117q61 0 110 26z
" />
    <glyph glyph-name="quotesinglbase" unicode="&#x201a;" horiz-adv-x="275" 
d="M138 147q49 0 69 -48q28 -66 -29 -156q-35 -56 -100 -109l-53 48q66 70 66 105q0 12 -14.5 36t-14.5 49q0 33 21 54t55 21z" />
    <glyph glyph-name="florin" unicode="&#x192;" 
d="M504 702l-9 -91h-49q-57 0 -77.5 -28.5t-26.5 -89.5l-10 -94h138v-97h-146l-19 -198q-4 -41 -10.5 -71t-21.5 -61t-37 -51t-58 -32.5t-85 -12.5q-28 0 -76 8l9 92h47q57 0 77.5 27.5t26.5 88.5l20 210h-117v97h126l9 84q5 51 15 87.5t31.5 70.5t60.5 51.5t96 17.5
q33 0 86 -8z" />
    <glyph glyph-name="quotedblbase" unicode="&#x201e;" horiz-adv-x="481" 
d="M343 144q47 0 69 -42t-7.5 -115.5t-118.5 -144.5l-50 49q41 39 54.5 66t8 40t-16 34t-10.5 41q0 30 20.5 51t50.5 21zM135 144q47 0 67 -46q28 -64 -27 -150q-34 -53 -97 -102l-49 49q40 37 53 63.5t7 39l-16 33.5t-10 41q0 30 20.5 51t51.5 21z" />
    <glyph glyph-name="ellipsis" unicode="&#x2026;" horiz-adv-x="786" 
d="M723 71q0 -35 -23.5 -58.5t-58.5 -23.5t-58 23.5t-23 58.5q0 34 23.5 57.5t57.5 23.5t58 -23.5t24 -57.5zM474 71q0 -35 -23 -58.5t-58 -23.5t-58.5 23.5t-23.5 58.5q0 34 24 57.5t58 23.5t57.5 -23.5t23.5 -57.5zM226 71q0 -35 -23.5 -58.5t-58.5 -23.5
q-34 0 -57.5 23.5t-23.5 58.5q0 34 23.5 57.5t57.5 23.5q35 0 58.5 -23.5t23.5 -57.5z" />
    <glyph glyph-name="dagger" unicode="&#x2020;" 
d="M492 490h-168l24 -115q0 -86 -31 -268h-84q-31 184 -31 268l25 115h-169v91h169q-15 80 -25 169h146q-8 -86 -24 -169h168v-91z" />
    <glyph glyph-name="daggerdbl" unicode="&#x2021;" 
d="M492 169h-169q16 -83 24 -169h-145q8 87 25 169h-169v91h168q-23 46 -23 116q0 67 22 114h-167v91h169q-17 82 -25 169h145q-8 -86 -24 -169h169v-91h-167q22 -47 22 -114q0 -70 -23 -116h168v-91z" />
    <glyph glyph-name="circumflex" unicode="&#x2c6;" horiz-adv-x="368" 
d="M310 637l-48 -57l-109 85l-109 -85l-44 57l154 138z" />
    <glyph glyph-name="perthousand" unicode="&#x2030;" horiz-adv-x="1180" 
d="M1140 170q0 -93 -44 -138.5t-122 -45.5q-159 0 -159 184q0 89 43 136.5t122 47.5q83 0 121.5 -46t38.5 -138zM768 170q0 -93 -44 -138.5t-122 -45.5q-159 0 -159 184q0 89 43 136.5t122 47.5q83 0 121.5 -46t38.5 -138zM694 677l-511 -704l-73 49l512 705zM363 528
q0 -93 -44 -138t-123 -45q-158 0 -158 183q0 89 43 136.5t122 47.5q83 0 121.5 -46t38.5 -138zM1041 170q0 61 -15.5 84t-47.5 23q-35 0 -49.5 -25.5t-14.5 -81.5q0 -59 15 -83t48 -24q36 0 50 26.5t14 80.5zM669 170q0 61 -15.5 84t-47.5 23q-35 0 -49.5 -25.5t-14.5 -81.5
q0 -59 15 -83t48 -24q36 0 50 26.5t14 80.5zM264 528q0 61 -15.5 84.5t-47.5 23.5q-35 0 -50 -26t-15 -82q0 -58 15 -82.5t48 -24.5q36 0 50.5 27t14.5 80z" />
    <glyph glyph-name="Scaron" unicode="&#x160;" horiz-adv-x="522" 
d="M485 210q0 -109 -74 -166.5t-194 -57.5q-82 0 -172 25l15 111q80 -26 156 -26q127 0 127 96q0 41 -29.5 64t-99.5 51q-83 34 -124.5 79.5t-41.5 123.5q0 94 67.5 148t173.5 54q85 0 154 -25l-20 -104q-61 22 -133 22q-49 0 -74.5 -21t-25.5 -58q0 -41 26.5 -63.5
t84.5 -46.5q36 -15 56.5 -25t48.5 -28.5t42.5 -37.5t25.5 -49t11 -66zM415 834l-152 -89l-154 87l33 62l121 -57l120 57z" />
    <glyph glyph-name="guilsinglleft" unicode="&#x2039;" horiz-adv-x="379" 
d="M281 77l-92 -34l-145 237l145 237l92 -34l-107 -203z" />
    <glyph glyph-name="OE" unicode="&#x152;" horiz-adv-x="948" 
d="M889 0h-399q-70 -12 -109 -12q-335 0 -335 357q0 169 89 267t254 98q42 0 104 -12h392v-106h-272v-179h235v-104h-235v-203h276v-106zM480 118v461q-52 21 -99 21q-69 0 -114 -34.5t-62 -86.5t-17 -122q0 -126 47 -192.5t156 -66.5q45 0 89 20z" />
    <glyph glyph-name="quoteleft" unicode="&#x2018;" horiz-adv-x="275" 
d="M250 732q-66 -70 -66 -105q0 -11 14 -35t14 -49q0 -33 -20.5 -54.5t-54.5 -21.5q-49 0 -69 48q-28 66 29 156q35 56 100 109z" />
    <glyph glyph-name="quoteright" unicode="&#x2019;" horiz-adv-x="275" 
d="M138 750q49 0 69 -48q28 -66 -28 -156q-36 -56 -101 -110l-53 49q66 69 66 104q0 12 -14.5 36t-14.5 49q0 33 21 54.5t55 21.5z" />
    <glyph glyph-name="quotedblleft" unicode="&#x201c;" horiz-adv-x="477" 
d="M447 723q-40 -37 -52.5 -63t-7 -39t16 -33.5t10.5 -40.5q0 -29 -20.5 -50t-50.5 -21q-46 0 -67.5 41.5t7 112.5t116.5 140zM242 727q-40 -38 -53.5 -65.5t-7.5 -40.5l16 -34t10 -40q0 -29 -20.5 -50t-50.5 -21q-47 0 -67 46q-28 64 28 150q34 53 96 102z" />
    <glyph glyph-name="quotedblright" unicode="&#x201d;" horiz-adv-x="477" 
d="M340 742q47 0 67 -46q28 -63 -27 -149q-34 -53 -97 -103l-49 48q40 38 53.5 65t7.5 40l-16 34t-10 40q0 29 20.5 50t50.5 21zM133 742q48 0 68 -46q27 -63 -28 -148q-34 -52 -96 -100l-48 48q40 37 52.5 63t7 38.5t-16 33t-10.5 40.5q0 29 20.5 50t50.5 21z" />
    <glyph glyph-name="bullet" unicode="&#x2022;" 
d="M465 347q0 -79 -55.5 -135t-135.5 -56t-135 55t-55 135t56 135.5t135 55.5t134.5 -55.5t55.5 -134.5z" />
    <glyph glyph-name="endash" unicode="&#x2013;" 
d="M550 254h-550v105h550v-105z" />
    <glyph glyph-name="emdash" unicode="&#x2014;" horiz-adv-x="1000" 
d="M923 254h-846v105h846v-105z" />
    <glyph glyph-name="tilde" unicode="&#x2dc;" horiz-adv-x="422" 
d="M366 705q-32 -98 -117 -98q-38 0 -76 21.5t-60 21.5q-34 0 -56 -48l-57 39q31 98 117 98q38 0 76 -21.5t59 -21.5q35 0 57 49z" />
    <glyph glyph-name="trademark" unicode="&#x2122;" horiz-adv-x="704" 
d="M647 406h-75q-1 66 -5 203l-67 -203h-74l-68 204q-2 -134 -2 -204h-69q0 129 12 292h108l60 -188l60 188h106q13 -152 14 -292zM258 631h-71v-225h-83v225h-72v67h226v-67z" />
    <glyph glyph-name="scaron" unicode="&#x161;" horiz-adv-x="439" 
d="M404 156q0 -77 -57 -123.5t-154 -46.5q-76 0 -151 20l18 102q67 -23 129 -23q38 0 59.5 15t21.5 44q0 25 -19.5 39.5t-67.5 30.5q-71 22 -104.5 55.5t-33.5 95.5q0 75 53 119t147 44q67 0 129 -18l-15 -97q-55 19 -109 19q-38 0 -55.5 -17t-17.5 -40q0 -24 19 -37.5
t69 -30.5q74 -23 106.5 -57t32.5 -94zM374 720l-155 -140l-156 139l48 58l109 -86l109 86z" />
    <glyph glyph-name="guilsinglright" unicode="&#x203a;" horiz-adv-x="379" 
d="M336 280l-146 -237l-92 34l107 203l-107 203l92 34z" />
    <glyph glyph-name="oe" unicode="&#x153;" horiz-adv-x="954" 
d="M908 289q0 -20 -2 -60h-339q0 -71 33 -107t109 -36q85 0 170 22l12 -93q-95 -29 -202 -29q-136 0 -195 86q-68 -86 -194 -86q-130 0 -195 70.5t-65 191.5q0 129 71 204.5t200 75.5q131 0 193 -86q61 86 183 86q112 0 166.5 -62.5t54.5 -176.5zM782 312q2 58 -24 91.5
t-78 33.5q-54 0 -83 -37t-30 -88h215zM437 251q0 176 -133 176q-64 0 -97 -45.5t-33 -120.5q0 -86 32 -129.5t103 -43.5q63 0 95.5 45t32.5 118z" />
    <glyph glyph-name="Ydieresis" unicode="&#x178;" horiz-adv-x="598" 
d="M592 698q-96 -232 -224 -417v-281h-134v281q-127 189 -228 417h154q60 -158 148 -300q85 142 137 300h147zM474 809q0 -27 -17 -44.5t-45 -17.5q-27 0 -44.5 17.5t-17.5 44.5q0 28 17.5 45.5t44.5 17.5q28 0 45 -17.5t17 -45.5zM255 809q0 -27 -17 -44.5t-45 -17.5
t-45 17.5t-17 44.5q0 28 17 45.5t45 17.5t45 -17.5t17 -45.5z" />
    <glyph glyph-name="nbspace" unicode="&#xa0;" horiz-adv-x="270" 
 />
    <glyph glyph-name="exclamdown" unicode="&#xa1;" horiz-adv-x="360" 
d="M239 520q0 -33 -22.5 -56t-56.5 -23t-56.5 23t-22.5 56q0 34 22.5 57t56.5 23t56.5 -23t22.5 -57zM230 -161h-140l15 542h110z" />
    <glyph glyph-name="cent" unicode="&#xa2;" 
d="M496 131q-62 -30 -123 -38v-93h-97v93q-97 11 -151 76t-54 177q0 110 56 177.5t149 81.5v93h97v-88q64 -8 116 -32l-31 -97q-56 28 -112 28q-65 0 -104 -40.5t-39 -114.5q0 -78 37.5 -119.5t104.5 -41.5q64 0 124 32z" />
    <glyph glyph-name="sterling" unicode="&#xa3;" 
d="M503 0h-446v93q50 49 69 96.5t12 117.5h-93v93h73q-12 78 -12 115q0 90 58 141.5t169 51.5q76 0 137 -13v-99q-63 13 -123 13t-86 -22.5t-26 -69.5q0 -41 14 -117h182v-93h-165q11 -128 -65 -201h302v-106z" />
    <glyph glyph-name="currency" unicode="&#xa4;" 
d="M515 53l-101 -52l-64 111q-30 -16 -81 -16q-49 0 -73 12l-61 -107l-100 51l72 106q-48 54 -48 148q0 96 49 153l-74 107l101 52l60 -104q29 16 84 16t77 -15l59 102l101 -50l-71 -105q43 -54 43 -146q0 -91 -50 -151zM373 309q0 60 -24.5 95t-75.5 35q-48 0 -73 -34
t-25 -88q0 -129 102 -129q47 0 71.5 33.5t24.5 87.5z" />
    <glyph glyph-name="yen" unicode="&#xa5;" 
d="M530 698q-75 -173 -189 -339v-19h145v-79h-145v-86h145v-79h-145v-96h-130v96h-144v79h144v86h-144v79h144v19q-114 172 -192 339h134q53 -120 129 -238q66 101 118 238h130z" />
    <glyph glyph-name="brokenbar" unicode="&#xa6;" 
d="M335 396h-121v383h121v-383zM335 -204h-121v386h121v-386z" />
    <glyph glyph-name="section" unicode="&#xa7;" horiz-adv-x="585" 
d="M519 154q0 -60 -27.5 -133.5t-69.5 -119.5q-80 -98 -204 -98q-41 0 -80 6l5 104q39 -9 88 -9q82 0 82 64q0 30 -25.5 62t-62 64.5t-73.5 70.5t-62.5 94.5t-25.5 121.5q0 60 28.5 133t70.5 122q81 96 192 96q38 0 82 -7l-5 -98q-43 8 -81 8q-44 0 -63.5 -17.5t-19.5 -53.5
q0 -27 26 -57t63 -61.5t73.5 -69.5t62.5 -96t26 -126zM411 131q0 50 -21 92t-52 72l-62.5 58t-58 65t-33.5 78q-13 -46 -13 -88q0 -49 20.5 -90t50.5 -71t61.5 -58.5t57.5 -66.5t34 -81q16 48 16 90z" />
    <glyph glyph-name="dieresis" unicode="&#xa8;" horiz-adv-x="412" 
d="M338 675q0 -29 -18 -47.5t-47 -18.5q-30 0 -48 18.5t-18 47.5t18 47t48 18q29 0 47 -18t18 -47zM131 675q0 -29 -18 -47.5t-48 -18.5q-29 0 -47 18.5t-18 47.5t18 47t47 18q30 0 48 -18t18 -47z" />
    <glyph glyph-name="copyright" unicode="&#xa9;" horiz-adv-x="779" 
d="M736 343q0 -145 -101 -247.5t-247 -102.5q-148 0 -248 100.5t-100 246.5q0 145 101.5 247t247.5 102q147 0 247 -100.5t100 -245.5zM646 340q0 110 -75 187t-183 77q-109 0 -183.5 -75.5t-74.5 -185.5q0 -111 75 -188t184 -77t183 75.5t74 186.5zM501 179
q-51 -21 -108 -21q-81 0 -125.5 44.5t-44.5 131.5q0 92 50 140.5t133 48.5q45 0 91 -18l-23 -80q-32 12 -61 12q-39 0 -59.5 -25t-20.5 -71q0 -96 81 -96q30 0 69 14z" />
    <glyph glyph-name="ordfeminine" unicode="&#xaa;" horiz-adv-x="457" 
d="M384 336h-79l-10 44q-45 -54 -117 -54q-59 0 -93 28.5t-34 83.5q0 64 47.5 92t143.5 28h37v18q0 30 -17 44t-56 14q-60 0 -109 -21l-15 72q65 24 138 24q82 0 123 -31t41 -101v-241zM385 177h-321v89h321v-89zM279 441v52h-40q-45 0 -64 -11t-19 -37q0 -21 13 -34t35 -13
q41 0 75 43z" />
    <glyph glyph-name="guillemotleft" unicode="&#xab;" horiz-adv-x="590" 
d="M495 91l-91 -35l-141 224l141 224l91 -35l-104 -189zM281 77l-92 -34l-145 237l145 237l92 -34l-107 -203z" />
    <glyph glyph-name="logicalnot" unicode="&#xac;" 
d="M503 136h-105v130h-366v100h471v-230z" />
    <glyph glyph-name="minus" unicode="&#x2212;" 
d="M514 260h-478v100h478v-100z" />
    <glyph glyph-name="registered" unicode="&#xae;" horiz-adv-x="570" 
d="M517 533q0 -97 -68 -166t-165 -69q-99 0 -166 67.5t-67 166.5q0 97 68 165.5t166 68.5q99 0 165.5 -67t66.5 -166zM447 530q0 73 -47.5 121.5t-115.5 48.5q-71 0 -117 -48.5t-46 -117.5q0 -72 48 -121t116 -49q71 0 116.5 48t45.5 118zM382 585q0 -50 -39 -67l46 -101
h-74l-34 85h-20v-85h-64v234h97q39 0 63.5 -16.5t24.5 -49.5zM316 580q0 25 -34 25h-21v-55h18q37 0 37 30z" />
    <glyph glyph-name="macron" unicode="&#xaf;" horiz-adv-x="306" 
d="M286 630h-286v85h286v-85z" />
    <glyph glyph-name="degree" unicode="&#xb0;" horiz-adv-x="377" 
d="M335 608q0 -60 -42 -100t-106 -40q-66 0 -105.5 38t-39.5 98t42.5 100t106.5 40t104 -38t40 -98zM246 605q0 27 -16.5 45t-41.5 18q-24 0 -40.5 -17.5t-16.5 -43.5q0 -27 17 -45t42 -18q23 0 39.5 18t16.5 43z" />
    <glyph glyph-name="plusminus" unicode="&#xb1;" 
d="M507 355h-180v-198h-104v198h-180v99h180v198h104v-198h180v-99zM500 0h-450v100h450v-100z" />
    <glyph glyph-name="twosuperior" unicode="&#xb2;" horiz-adv-x="370" 
d="M336 359h-298v73l87 65q68 49 68 93q0 40 -56 40q-41 0 -76 -15l-20 71q63 25 132 25q147 0 147 -103q0 -36 -19.5 -66.5t-73.5 -66.5l-44 -31h153v-85z" />
    <glyph glyph-name="threesuperior" unicode="&#xb3;" horiz-adv-x="370" 
d="M324 456q0 -59 -44 -85t-114 -26q-52 0 -110 11v65q37 -4 83 -4q70 0 70 41q0 44 -73 44h-33v66h35q68 0 68 40q0 34 -47 34q-39 0 -84 -14l-17 65q69 18 126 18q64 0 98 -24t34 -68q0 -61 -67 -79q37 -4 56 -28t19 -56z" />
    <glyph glyph-name="acute" unicode="&#xb4;" horiz-adv-x="312" 
d="M214 716l-149 -137l-65 42l120 152z" />
    <glyph glyph-name="mu" unicode="&#xb5;" horiz-adv-x="642" 
d="M616 0q-40 -11 -71 -11q-99 0 -119 71q-40 -38 -76 -55.5t-82 -17.5q-45 0 -66 26v-223h-127v724h128v-298q0 -125 85 -125q36 0 62.5 16.5t63.5 55.5v351h128v-371q0 -27 9 -39t31 -12h34v-92z" />
    <glyph glyph-name="paragraph" unicode="&#xb6;" horiz-adv-x="621" 
d="M542 -113h-100v717h-95v-717h-100v389q-99 -7 -163 53.5t-64 156.5q0 91 61.5 151.5t156.5 60.5h304v-811z" />
    <glyph glyph-name="periodcentered" unicode="&#xb7;" horiz-adv-x="283" 
d="M223 311q0 -35 -23.5 -58.5t-57.5 -23.5q-35 0 -58.5 23.5t-23.5 58.5t23.5 58.5t58.5 23.5q34 0 57.5 -23.5t23.5 -58.5z" />
    <glyph glyph-name="cedilla" unicode="&#xb8;" horiz-adv-x="310" 
d="M263 -111q0 -73 -114 -73q-60 0 -106 17v72h90q24 0 24 9q0 8 -5 21l-30 65h95l22 -42q24 -41 24 -69z" />
    <glyph glyph-name="onesuperior" unicode="&#xb9;" horiz-adv-x="370" 
d="M331 359h-272v76h84v180l-69 -27l-24 61l125 49h78v-263h78v-76z" />
    <glyph glyph-name="ordmasculine" unicode="&#xba;" horiz-adv-x="478" 
d="M430 522q0 -89 -52.5 -142.5t-144.5 -53.5q-95 0 -143 49.5t-48 135.5q0 92 51 145.5t146 53.5q93 0 142 -50t49 -138zM405 177h-330v89h330v-89zM321 514q0 117 -86 117q-42 0 -63 -30t-21 -80q0 -115 87 -115q40 0 61.5 30.5t21.5 77.5z" />
    <glyph glyph-name="guillemotright" unicode="&#xbb;" horiz-adv-x="590" 
d="M546 280l-145 -237l-92 34l107 203l-107 203l92 34zM327 280l-141 -224l-91 35l104 189l-104 189l91 35z" />
    <glyph glyph-name="onequarter" unicode="&#xbc;" horiz-adv-x="854" 
d="M787 55h-56v-63h-103v63h-187v68l138 219h152v-214h56v-73zM699 677l-511 -704l-73 49l512 705zM270 358h-116v235l-78 -33l-31 73l132 70h93v-345zM628 128v149h-1l-93 -149h94z" />
    <glyph glyph-name="onehalf" unicode="&#xbd;" horiz-adv-x="870" 
d="M806 0h-298v73l87 67q68 50 68 93q0 41 -55 41q-41 0 -77 -15l-20 71q62 24 133 24q147 0 147 -103q0 -36 -20 -66t-74 -68l-44 -32h153v-85zM699 677l-511 -704l-73 49l512 705zM270 358h-116v235l-78 -33l-31 73l132 70h93v-345z" />
    <glyph glyph-name="threequarters" unicode="&#xbe;" horiz-adv-x="844" 
d="M795 55h-57v-63h-103v63h-187v68l138 219h152v-214h57v-73zM704 677l-512 -704l-72 49l511 705zM322 457q0 -59 -44 -85t-114 -26q-59 0 -105 10v65q36 -3 79 -3q69 0 69 40q0 25 -18.5 34.5t-54.5 9.5h-33v66h35q69 0 69 41q0 33 -47 33q-43 0 -79 -17l-17 65
q57 21 124 21q129 0 129 -91q0 -62 -68 -80q38 -4 56.5 -27t18.5 -56zM635 128v149h-1l-93 -149h94z" />
    <glyph glyph-name="questiondown" unicode="&#xbf;" horiz-adv-x="469" 
d="M344 520q0 -33 -23 -56t-57 -23t-56.5 23t-22.5 56q0 34 22.5 57t56.5 23t57 -23t23 -57zM406 -156q-59 -16 -129 -16q-231 0 -231 179q0 46 18.5 85.5t44 68.5l50.5 59t40 71t10 90h113q9 -56 -2 -102t-33.5 -76.5t-46 -56.5t-41 -56t-17.5 -62q0 -96 115 -96
q55 0 109 7v-95z" />
    <glyph glyph-name="Agrave" unicode="&#xc0;" horiz-adv-x="683" 
d="M665 0h-152l-23 79l-24 84h-266q-32 -103 -48 -163h-134q104 345 241 698h160q137 -345 246 -698zM436 266q-31 98 -103 301l-1 -1q-65 -182 -103 -300h207zM397 807l-36 -64l-200 68l47 86z" />
    <glyph glyph-name="Aacute" unicode="&#xc1;" horiz-adv-x="683" 
d="M665 0h-152l-23 79l-24 84h-266q-32 -103 -48 -163h-134q104 345 241 698h160q137 -345 246 -698zM436 266q-31 98 -103 301l-1 -1q-65 -182 -103 -300h207zM501 811l-200 -68l-36 64l189 90z" />
    <glyph glyph-name="Acircumflex" unicode="&#xc2;" horiz-adv-x="683" 
d="M665 0h-152l-23 79l-24 84h-266q-32 -103 -48 -163h-134q104 345 241 698h160q137 -345 246 -698zM436 266q-31 98 -103 301l-1 -1q-65 -182 -103 -300h207zM490 807l-33 -62l-121 57l-119 -57l-32 61l152 88z" />
    <glyph glyph-name="Atilde" unicode="&#xc3;" horiz-adv-x="683" 
d="M665 0h-152l-23 79l-24 84h-266q-32 -103 -48 -163h-134q104 345 241 698h160q137 -345 246 -698zM436 266q-31 98 -103 301l-1 -1q-65 -182 -103 -300h207zM520 842q-14 -43 -46.5 -67t-74.5 -24q-39 0 -77 20.5t-60 20.5q-34 0 -58 -47l-60 37q15 44 47 68t74 24
q39 0 77 -20.5t60 -20.5q34 0 58 46z" />
    <glyph glyph-name="Adieresis" unicode="&#xc4;" horiz-adv-x="683" 
d="M665 0h-152l-23 79l-24 84h-266q-32 -103 -48 -163h-134q104 345 241 698h160q137 -345 246 -698zM436 266q-31 98 -103 301l-1 -1q-65 -182 -103 -300h207zM509 809q0 -27 -17.5 -44.5t-45.5 -17.5q-27 0 -44.5 17.5t-17.5 44.5q0 28 17.5 45.5t44.5 17.5
q28 0 45.5 -17.5t17.5 -45.5zM290 809q0 -27 -17.5 -44.5t-45.5 -17.5q-27 0 -44.5 17.5t-17.5 44.5q0 28 17.5 45.5t44.5 17.5q28 0 45.5 -17.5t17.5 -45.5z" />
    <glyph glyph-name="Aring" unicode="&#xc5;" horiz-adv-x="683" 
d="M461 759q0 -50 -36 -77q132 -330 240 -682h-152l-23 79l-24 84h-266q-32 -103 -48 -163h-134q105 350 234 681q-31 24 -31 72q0 51 31.5 80t90.5 29q57 0 87.5 -27t30.5 -76zM436 266q-31 98 -103 301l-1 -1q-65 -182 -103 -300h207zM386 755q0 53 -46 53q-45 0 -45 -50
q0 -27 11.5 -40.5t35.5 -12.5q22 -1 33 13t11 37z" />
    <glyph glyph-name="AE" unicode="&#xc6;" horiz-adv-x="879" 
d="M821 0h-410v149h-226l-66 -149h-131q149 335 347 698h477v-106h-268v-179h236v-104h-236v-203h277v-106zM411 252v343h-5l-176 -343h181z" />
    <glyph glyph-name="Ccedilla" unicode="&#xc7;" horiz-adv-x="585" 
d="M456 -111q0 -73 -114 -73q-58 0 -106 17v72h90q25 0 25 9t-6 21l-27 58q-129 15 -200.5 104t-71.5 242q0 174 90.5 272.5t241.5 98.5q101 0 183 -39l-40 -104q-66 30 -140 30q-89 0 -140.5 -68.5t-51.5 -179.5q0 -123 55 -185t152 -62q68 0 135 30l33 -103
q-63 -31 -148 -39l17 -32q23 -41 23 -69z" />
    <glyph glyph-name="Egrave" unicode="&#xc8;" horiz-adv-x="547" 
d="M489 0h-410v698h406v-106h-273v-179h236v-104h-236v-203h277v-106zM349 807l-35 -64l-200 68l46 86z" />
    <glyph glyph-name="Eacute" unicode="&#xc9;" horiz-adv-x="547" 
d="M489 0h-410v698h406v-106h-273v-179h236v-104h-236v-203h277v-106zM425 811l-199 -68l-36 64l189 90z" />
    <glyph glyph-name="Ecircumflex" unicode="&#xca;" horiz-adv-x="547" 
d="M489 0h-410v698h406v-106h-273v-179h236v-104h-236v-203h277v-106zM432 807l-34 -62l-120 57l-120 -57l-32 61l152 88z" />
    <glyph glyph-name="Edieresis" unicode="&#xcb;" horiz-adv-x="547" 
d="M489 0h-410v698h406v-106h-273v-179h236v-104h-236v-203h277v-106zM454 809q0 -27 -17.5 -44.5t-45.5 -17.5q-27 0 -44.5 17.5t-17.5 44.5q0 28 17.5 45.5t44.5 17.5q28 0 45.5 -17.5t17.5 -45.5zM235 809q0 -27 -17.5 -44.5t-45.5 -17.5q-27 0 -44.5 17.5t-17.5 44.5
q0 28 17.5 45.5t44.5 17.5q28 0 45.5 -17.5t17.5 -45.5z" />
    <glyph glyph-name="Igrave" unicode="&#xcc;" horiz-adv-x="292" 
d="M213 0h-134v698h134v-698zM235 807l-35 -64l-200 68l46 86z" />
    <glyph glyph-name="Iacute" unicode="&#xcd;" horiz-adv-x="292" 
d="M213 0h-134v698h134v-698zM286 811l-200 -68l-36 64l189 90z" />
    <glyph glyph-name="Icircumflex" unicode="&#xce;" horiz-adv-x="292" 
d="M213 0h-134v698h134v-698zM299 807l-33 -62l-121 57l-120 -57l-31 61l152 88z" />
    <glyph glyph-name="Idieresis" unicode="&#xcf;" horiz-adv-x="292" 
d="M307 809q0 -27 -17 -44.5t-45 -17.5t-45 17.5t-17 44.5q0 28 17 45.5t45 17.5t45 -17.5t17 -45.5zM112 809q0 -27 -17 -44.5t-45 -17.5t-45 17.5t-17 44.5q0 28 17 45.5t45 17.5t45 -17.5t17 -45.5zM213 0h-134v698h134v-698z" />
    <glyph glyph-name="Eth" unicode="&#xd0;" horiz-adv-x="717" 
d="M674 359q0 -178 -95.5 -268.5t-266.5 -90.5h-223v299h-77v101h77v298h237q167 0 257.5 -87.5t90.5 -251.5zM534 352q0 110 -53 175t-164 65h-95v-192h129v-101h-129v-192h94q218 0 218 245z" />
    <glyph glyph-name="Ntilde" unicode="&#xd1;" horiz-adv-x="723" 
d="M644 0h-171l-273 517h-2v-517h-119v698h177l267 -507h2v507h119v-698zM548 842q-15 -43 -47 -67t-74 -24q-39 0 -77.5 20.5t-60.5 20.5q-33 0 -57 -47l-60 37q15 44 47 68t74 24q39 0 77 -20.5t60 -20.5q34 0 58 46z" />
    <glyph glyph-name="Ograve" unicode="&#xd2;" horiz-adv-x="770" 
d="M724 356q0 -174 -88 -272t-255 -98q-166 0 -250.5 90.5t-84.5 268.5q0 169 89.5 268t252.5 99q162 0 249 -92t87 -264zM582 344q0 257 -202 257q-101 0 -146.5 -67.5t-45.5 -176.5q0 -126 46.5 -193t155.5 -67q102 0 147 68t45 179zM448 807l-36 -64l-199 68l46 86z" />
    <glyph glyph-name="Oacute" unicode="&#xd3;" horiz-adv-x="770" 
d="M724 356q0 -174 -88 -272t-255 -98q-166 0 -250.5 90.5t-84.5 268.5q0 169 89.5 268t252.5 99q162 0 249 -92t87 -264zM582 344q0 257 -202 257q-101 0 -146.5 -67.5t-45.5 -176.5q0 -126 46.5 -193t155.5 -67q102 0 147 68t45 179zM559 811l-200 -68l-35 64l189 90z" />
    <glyph glyph-name="Ocircumflex" unicode="&#xd4;" horiz-adv-x="770" 
d="M724 356q0 -174 -88 -272t-255 -98q-166 0 -250.5 90.5t-84.5 268.5q0 169 89.5 268t252.5 99q162 0 249 -92t87 -264zM582 344q0 257 -202 257q-101 0 -146.5 -67.5t-45.5 -176.5q0 -126 46.5 -193t155.5 -67q102 0 147 68t45 179zM538 807l-33 -62l-121 57l-120 -57
l-31 61l152 88z" />
    <glyph glyph-name="Otilde" unicode="&#xd5;" horiz-adv-x="770" 
d="M724 356q0 -174 -88 -272t-255 -98q-166 0 -250.5 90.5t-84.5 268.5q0 169 89.5 268t252.5 99q162 0 249 -92t87 -264zM582 344q0 257 -202 257q-101 0 -146.5 -67.5t-45.5 -176.5q0 -126 46.5 -193t155.5 -67q102 0 147 68t45 179zM568 842q-15 -43 -47 -67t-74 -24
q-39 0 -77.5 20.5t-60.5 20.5q-33 0 -57 -47l-60 37q15 44 47 68t74 24q39 0 77 -20.5t60 -20.5q34 0 58 46z" />
    <glyph glyph-name="Odieresis" unicode="&#xd6;" horiz-adv-x="770" 
d="M724 356q0 -174 -88 -272t-255 -98q-166 0 -250.5 90.5t-84.5 268.5q0 169 89.5 268t252.5 99q162 0 249 -92t87 -264zM582 344q0 257 -202 257q-101 0 -146.5 -67.5t-45.5 -176.5q0 -126 46.5 -193t155.5 -67q102 0 147 68t45 179zM556 809q0 -27 -17.5 -44.5
t-44.5 -17.5q-28 0 -45.5 17.5t-17.5 44.5q0 28 17.5 45.5t45.5 17.5q27 0 44.5 -17.5t17.5 -45.5zM337 809q0 -27 -17.5 -44.5t-45.5 -17.5q-27 0 -44.5 17.5t-17.5 44.5q0 28 17.5 45.5t44.5 17.5q28 0 45.5 -17.5t17.5 -45.5z" />
    <glyph glyph-name="multiply" unicode="&#xd7;" 
d="M509 147l-69 -69l-164 165l-164 -165l-70 69l165 164l-164 164l69 69l164 -164l164 164l69 -68l-165 -165z" />
    <glyph glyph-name="Oslash" unicode="&#xd8;" horiz-adv-x="770" 
d="M724 356q0 -174 -88 -272t-256 -98q-64 0 -123 19l-63 -121l-81 39l61 116q-128 86 -128 304q0 168 90 268.5t252 100.5q70 0 132 -24l55 106l81 -39l-55 -104q123 -89 123 -295zM589 344q0 121 -50 184l-229 -422q34 -14 80 -14q105 0 152 69.5t47 182.5zM468 587
q-36 18 -88 18q-101 0 -149.5 -69.5t-48.5 -178.5q0 -132 55 -195z" />
    <glyph glyph-name="Ugrave" unicode="&#xd9;" horiz-adv-x="718" 
d="M640 262q0 -130 -73.5 -202.5t-209.5 -72.5q-133 0 -206 67.5t-73 198.5v445h134v-434q0 -82 40 -125t109 -43t108.5 42.5t39.5 119.5v440h131v-436zM409 807l-36 -64l-200 68l47 86z" />
    <glyph glyph-name="Uacute" unicode="&#xda;" horiz-adv-x="718" 
d="M640 262q0 -130 -73.5 -202.5t-209.5 -72.5q-133 0 -206 67.5t-73 198.5v445h134v-434q0 -82 40 -125t109 -43t108.5 42.5t39.5 119.5v440h131v-436zM557 811l-200 -68l-36 64l189 90z" />
    <glyph glyph-name="Ucircumflex" unicode="&#xdb;" horiz-adv-x="718" 
d="M640 262q0 -130 -73.5 -202.5t-209.5 -72.5q-133 0 -206 67.5t-73 198.5v445h134v-434q0 -82 40 -125t109 -43t108.5 42.5t39.5 119.5v440h131v-436zM518 807l-34 -62l-121 57l-119 -57l-32 61l152 88z" />
    <glyph glyph-name="Udieresis" unicode="&#xdc;" horiz-adv-x="718" 
d="M640 262q0 -130 -73.5 -202.5t-209.5 -72.5q-133 0 -206 67.5t-73 198.5v445h134v-434q0 -82 40 -125t109 -43t108.5 42.5t39.5 119.5v440h131v-436zM532 809q0 -27 -17.5 -44.5t-45.5 -17.5q-27 0 -44.5 17.5t-17.5 44.5q0 28 17.5 45.5t44.5 17.5q28 0 45.5 -17.5
t17.5 -45.5zM312 809q0 -27 -17 -44.5t-45 -17.5q-27 0 -44.5 17.5t-17.5 44.5q0 28 17.5 45.5t44.5 17.5q28 0 45 -17.5t17 -45.5z" />
    <glyph glyph-name="Yacute" unicode="&#xdd;" horiz-adv-x="598" 
d="M592 698q-96 -232 -224 -417v-281h-134v281q-127 189 -228 417h154q60 -158 148 -300q85 142 137 300h147zM496 811l-199 -68l-36 64l189 90z" />
    <glyph glyph-name="Thorn" unicode="&#xde;" horiz-adv-x="585" 
d="M549 373q0 -115 -69 -177.5t-195 -62.5h-72v-133h-134v698h134v-113h68q60 0 99 -8q80 -16 124.5 -68.5t44.5 -135.5zM408 363q0 91 -74 112q-20 6 -56 6h-65v-243h79q57 0 86.5 33.5t29.5 91.5z" />
    <glyph glyph-name="germandbls" unicode="&#xdf;" horiz-adv-x="610" 
d="M585 163q0 -76 -53.5 -125.5t-145.5 -49.5q-62 0 -112 15l15 101q45 -16 85 -16q37 0 57 18t20 45q0 30 -17.5 48t-58.5 44q-53 33 -77 66.5t-24 84.5q0 38 18.5 67.5t40.5 45t40.5 37t18.5 45.5q0 31 -21.5 52.5t-65.5 21.5q-106 0 -106 -146v-517h-128v506
q0 121 62 188.5t180 67.5q103 0 157 -46.5t54 -116.5q0 -44 -19 -73.5t-41 -42t-41 -31.5t-19 -44q0 -20 12 -36.5t24 -24.5t42 -26q53 -32 78 -68t25 -90z" />
    <glyph glyph-name="agrave" unicode="&#xe0;" horiz-adv-x="553" 
d="M483 0h-97l-10 49q-69 -63 -162 -63q-81 0 -128.5 40.5t-47.5 116.5q0 167 257 167h62v27q0 50 -23.5 72.5t-83.5 22.5q-76 0 -151 -30l-22 93q90 33 191 33q215 0 215 -179v-349zM357 130v97h-64q-127 0 -127 -77q0 -33 20 -52t58 -19q57 0 113 51zM332 625l-67 -46
l-144 136l92 58z" />
    <glyph glyph-name="aacute" unicode="&#xe1;" horiz-adv-x="553" 
d="M483 0h-97l-10 49q-69 -63 -162 -63q-81 0 -128.5 40.5t-47.5 116.5q0 167 257 167h62v27q0 50 -23.5 72.5t-83.5 22.5q-76 0 -151 -30l-22 93q90 33 191 33q215 0 215 -179v-349zM357 130v97h-64q-127 0 -127 -77q0 -33 20 -52t58 -19q57 0 113 51zM416 716l-148 -137
l-66 42l121 152z" />
    <glyph glyph-name="acircumflex" unicode="&#xe2;" horiz-adv-x="553" 
d="M483 0h-97l-10 49q-69 -63 -162 -63q-81 0 -128.5 40.5t-47.5 116.5q0 167 257 167h62v27q0 50 -23.5 72.5t-83.5 22.5q-76 0 -151 -30l-22 93q90 33 191 33q215 0 215 -179v-349zM357 130v97h-64q-127 0 -127 -77q0 -33 20 -52t58 -19q57 0 113 51zM433 637l-48 -57
l-109 85l-108 -85l-45 57l155 138z" />
    <glyph glyph-name="atilde" unicode="&#xe3;" horiz-adv-x="553" 
d="M483 0h-97l-10 49q-69 -63 -162 -63q-81 0 -128.5 40.5t-47.5 116.5q0 167 257 167h62v27q0 50 -23.5 72.5t-83.5 22.5q-76 0 -151 -30l-22 93q90 33 191 33q215 0 215 -179v-349zM357 130v97h-64q-127 0 -127 -77q0 -33 20 -52t58 -19q57 0 113 51zM459 705
q-32 -98 -117 -98q-38 0 -76 21.5t-59 21.5q-35 0 -57 -48l-57 39q33 98 117 98q38 0 76 -21.5t59 -21.5q35 0 57 49z" />
    <glyph glyph-name="adieresis" unicode="&#xe4;" horiz-adv-x="553" 
d="M483 0h-97l-10 49q-69 -63 -162 -63q-81 0 -128.5 40.5t-47.5 116.5q0 167 257 167h62v27q0 50 -23.5 72.5t-83.5 22.5q-76 0 -151 -30l-22 93q90 33 191 33q215 0 215 -179v-349zM357 130v97h-64q-127 0 -127 -77q0 -33 20 -52t58 -19q57 0 113 51zM450 675
q0 -29 -18 -47.5t-47 -18.5q-30 0 -48 18.5t-18 47.5t18 47t48 18q29 0 47 -18t18 -47zM244 675q0 -29 -18.5 -47.5t-47.5 -18.5q-30 0 -48 18.5t-18 47.5t18 47t48 18q29 0 47.5 -18t18.5 -47z" />
    <glyph glyph-name="aring" unicode="&#xe5;" horiz-adv-x="553" 
d="M483 0h-97l-10 49q-69 -63 -162 -63q-81 0 -128.5 40.5t-47.5 116.5q0 167 257 167h62v27q0 50 -23.5 72.5t-83.5 22.5q-76 0 -151 -30l-22 93q90 33 191 33q215 0 215 -179v-349zM357 130v97h-64q-127 0 -127 -77q0 -33 20 -52t58 -19q57 0 113 51zM393 686
q0 -49 -32 -78.5t-89 -29.5q-58 0 -87.5 27.5t-29.5 74.5q0 51 31.5 80t89.5 29q57 0 87 -27t30 -76zM319 682q0 53 -46 53q-44 0 -44 -50q0 -53 46 -53q44 0 44 50z" />
    <glyph glyph-name="ae" unicode="&#xe6;" horiz-adv-x="867" 
d="M821 289q0 -20 -2 -64h-339q0 -68 33 -103.5t109 -35.5q85 0 170 22l13 -93q-97 -29 -203 -29q-138 0 -198 76q-43 -39 -87 -57.5t-107 -18.5q-80 0 -126 40t-46 117q0 171 253 171h62v23q0 51 -22.5 73t-82.5 22q-74 0 -149 -30l-22 93q90 33 189 33q121 0 169 -66
q57 66 166 66q112 0 166 -62.5t54 -176.5zM695 308q2 61 -24 95t-78 34q-54 0 -83 -37.5t-30 -91.5h215zM353 136v95h-64q-123 0 -123 -80q0 -33 19 -52.5t55 -19.5q58 0 113 57z" />
    <glyph glyph-name="ccedilla" unicode="&#xe7;" horiz-adv-x="455" 
d="M370 -111q0 -73 -114 -73q-58 0 -106 17v72h90q24 0 24 9q0 8 -5 21l-26 57q-97 12 -145 78.5t-48 176.5q0 132 69 205t185 73q74 0 132 -27l-28 -95q-47 20 -94 20q-65 0 -97.5 -43.5t-32.5 -121.5q0 -164 132 -164q53 0 101 21l22 -96q-51 -21 -101 -27l18 -34
q24 -41 24 -69z" />
    <glyph glyph-name="egrave" unicode="&#xe8;" horiz-adv-x="560" 
d="M515 289q0 -20 -2 -60h-340q0 -71 33 -107t110 -36q86 0 169 22l13 -93q-97 -29 -202 -29q-130 0 -192.5 65.5t-62.5 200.5q0 129 66 202.5t187 73.5q112 0 166.5 -62.5t54.5 -176.5zM388 312q2 58 -23.5 91.5t-77.5 33.5q-54 0 -83 -37t-31 -88h215zM352 625l-67 -46
l-144 136l92 58z" />
    <glyph glyph-name="eacute" unicode="&#xe9;" horiz-adv-x="560" 
d="M515 289q0 -20 -2 -60h-340q0 -71 33 -107t110 -36q86 0 169 22l13 -93q-97 -29 -202 -29q-130 0 -192.5 65.5t-62.5 200.5q0 129 66 202.5t187 73.5q112 0 166.5 -62.5t54.5 -176.5zM388 312q2 58 -23.5 91.5t-77.5 33.5q-54 0 -83 -37t-31 -88h215zM437 716l-149 -137
l-65 42l120 152z" />
    <glyph glyph-name="ecircumflex" unicode="&#xea;" horiz-adv-x="560" 
d="M515 289q0 -20 -2 -60h-340q0 -71 33 -107t110 -36q86 0 169 22l13 -93q-97 -29 -202 -29q-130 0 -192.5 65.5t-62.5 200.5q0 129 66 202.5t187 73.5q112 0 166.5 -62.5t54.5 -176.5zM388 312q2 58 -23.5 91.5t-77.5 33.5q-54 0 -83 -37t-31 -88h215zM443 637l-48 -57
l-109 85l-109 -85l-44 57l154 138z" />
    <glyph glyph-name="edieresis" unicode="&#xeb;" horiz-adv-x="560" 
d="M515 289q0 -20 -2 -60h-340q0 -71 33 -107t110 -36q86 0 169 22l13 -93q-97 -29 -202 -29q-130 0 -192.5 65.5t-62.5 200.5q0 129 66 202.5t187 73.5q112 0 166.5 -62.5t54.5 -176.5zM388 312q2 58 -23.5 91.5t-77.5 33.5q-54 0 -83 -37t-31 -88h215zM457 675
q0 -29 -18.5 -47.5t-47.5 -18.5t-47.5 18.5t-18.5 47.5t18.5 47t47.5 18t47.5 -18t18.5 -47zM250 675q0 -29 -18 -47.5t-48 -18.5q-29 0 -47 18.5t-18 47.5t18 47t47 18q30 0 48 -18t18 -47z" />
    <glyph glyph-name="igrave" unicode="&#xec;" horiz-adv-x="296" 
d="M225 0h-128v417h-81v97h209v-514zM211 625l-67 -46l-144 136l92 58z" />
    <glyph glyph-name="iacute" unicode="&#xed;" horiz-adv-x="296" 
d="M225 0h-128v417h-81v97h209v-514zM273 716l-149 -137l-65 42l120 152z" />
    <glyph glyph-name="icircumflex" unicode="&#xee;" horiz-adv-x="296" 
d="M225 0h-128v417h-81v97h209v-514zM310 637l-48 -57l-109 85l-109 -85l-44 57l154 138z" />
    <glyph glyph-name="idieresis" unicode="&#xef;" horiz-adv-x="296" 
d="M314 675q0 -29 -18 -47.5t-47 -18.5q-30 0 -48 18.5t-18 47.5t18 47t48 18q29 0 47 -18t18 -47zM120 675q0 -29 -18.5 -47.5t-47.5 -18.5q-30 0 -48 18.5t-18 47.5t18 47t48 18q29 0 47.5 -18t18.5 -47zM225 0h-128v417h-81v97h209v-514z" />
    <glyph glyph-name="eth" unicode="&#xf0;" horiz-adv-x="610" 
d="M556 277q0 -135 -71 -213t-195 -78t-185.5 72t-61.5 193q0 120 68 193.5t178 73.5q39 0 68 -15q-27 51 -59 92l-97 -34l-43 68l89 31q-24 29 -67 67l131 37q32 -28 63 -65l116 38l43 -67l-107 -37q130 -180 130 -356zM426 262q0 61 -21 127q-49 27 -107 27q-60 0 -91 -44
t-31 -109q0 -86 31.5 -131t92.5 -45q59 0 92.5 44t33.5 131z" />
    <glyph glyph-name="ntilde" unicode="&#xf1;" horiz-adv-x="605" 
d="M537 0h-128v298q0 125 -84 125q-37 0 -63.5 -16.5t-63.5 -55.5v-351h-128v514h98l12 -65q42 42 81.5 60.5t92.5 18.5q94 0 138.5 -54t44.5 -150v-324zM486 705q-32 -98 -117 -98q-38 0 -76 21.5t-59 21.5q-35 0 -57 -48l-57 39q33 98 117 98q38 0 76 -21.5t59 -21.5
q35 0 57 49z" />
    <glyph glyph-name="ograve" unicode="&#xf2;" horiz-adv-x="611" 
d="M571 263q0 -124 -72 -200.5t-199 -76.5q-130 0 -195 70.5t-65 191.5q0 129 71 204.5t200 75.5q126 0 193 -70.5t67 -194.5zM437 251q0 176 -133 176q-64 0 -97 -45.5t-33 -120.5q0 -86 32 -129.5t103 -43.5q63 0 95.5 45t32.5 118zM373 625l-66 -46l-144 136l92 58z" />
    <glyph glyph-name="oacute" unicode="&#xf3;" horiz-adv-x="611" 
d="M571 263q0 -124 -72 -200.5t-199 -76.5q-130 0 -195 70.5t-65 191.5q0 129 71 204.5t200 75.5q126 0 193 -70.5t67 -194.5zM437 251q0 176 -133 176q-64 0 -97 -45.5t-33 -120.5q0 -86 32 -129.5t103 -43.5q63 0 95.5 45t32.5 118zM450 716l-149 -137l-65 42l120 152z
" />
    <glyph glyph-name="ocircumflex" unicode="&#xf4;" horiz-adv-x="611" 
d="M571 263q0 -124 -72 -200.5t-199 -76.5q-130 0 -195 70.5t-65 191.5q0 129 71 204.5t200 75.5q126 0 193 -70.5t67 -194.5zM437 251q0 176 -133 176q-64 0 -97 -45.5t-33 -120.5q0 -86 32 -129.5t103 -43.5q63 0 95.5 45t32.5 118zM461 637l-48 -57l-109 85l-108 -85
l-45 57l155 138z" />
    <glyph glyph-name="otilde" unicode="&#xf5;" horiz-adv-x="611" 
d="M571 263q0 -124 -72 -200.5t-199 -76.5q-130 0 -195 70.5t-65 191.5q0 129 71 204.5t200 75.5q126 0 193 -70.5t67 -194.5zM437 251q0 176 -133 176q-64 0 -97 -45.5t-33 -120.5q0 -86 32 -129.5t103 -43.5q63 0 95.5 45t32.5 118zM490 705q-32 -98 -117 -98
q-38 0 -76 21.5t-59 21.5q-35 0 -57 -48l-57 39q33 98 117 98q38 0 76 -21.5t59 -21.5q35 0 57 49z" />
    <glyph glyph-name="odieresis" unicode="&#xf6;" horiz-adv-x="611" 
d="M571 263q0 -124 -72 -200.5t-199 -76.5q-130 0 -195 70.5t-65 191.5q0 129 71 204.5t200 75.5q126 0 193 -70.5t67 -194.5zM437 251q0 176 -133 176q-64 0 -97 -45.5t-33 -120.5q0 -86 32 -129.5t103 -43.5q63 0 95.5 45t32.5 118zM476 675q0 -29 -18 -47.5t-47 -18.5
q-30 0 -48 18.5t-18 47.5t18 47t48 18q29 0 47 -18t18 -47zM270 675q0 -29 -18.5 -47.5t-47.5 -18.5q-30 0 -48 18.5t-18 47.5t18 47t48 18q29 0 47.5 -18t18.5 -47z" />
    <glyph glyph-name="divide" unicode="&#xf7;" 
d="M352 515q0 -34 -23 -57t-57 -23t-57 23t-23 57t23 57t57 23t57 -23t23 -57zM516 260h-488v100h488v-100zM352 106q0 -34 -23 -57t-57 -23t-57 23t-23 57t23 57t57 23t57 -23t23 -57z" />
    <glyph glyph-name="oslash" unicode="&#xf8;" horiz-adv-x="611" 
d="M571 263q0 -124 -72 -200.5t-199 -76.5q-46 0 -90 13l-59 -107l-73 31l59 107q-97 66 -97 219q0 129 71 204t200 75q50 0 92 -15l59 108l73 -31l-60 -108q96 -69 96 -219zM446 251q0 77 -32 119l-157 -281q21 -9 53 -9q67 0 101.5 47.5t34.5 123.5zM356 423
q-21 12 -52 12q-69 0 -104 -47t-35 -126q0 -81 33 -120z" />
    <glyph glyph-name="ugrave" unicode="&#xf9;" horiz-adv-x="605" 
d="M534 0h-97l-12 65q-42 -42 -81.5 -60.5t-93.5 -18.5q-182 0 -182 204v324h128v-298q0 -125 84 -125q36 0 62.5 16.5t63.5 55.5v351h128v-514zM363 625l-67 -46l-144 136l92 58z" />
    <glyph glyph-name="uacute" unicode="&#xfa;" horiz-adv-x="605" 
d="M534 0h-97l-12 65q-42 -42 -81.5 -60.5t-93.5 -18.5q-182 0 -182 204v324h128v-298q0 -125 84 -125q36 0 62.5 16.5t63.5 55.5v351h128v-514zM450 716l-148 -137l-66 42l121 152z" />
    <glyph glyph-name="ucircumflex" unicode="&#xfb;" horiz-adv-x="605" 
d="M534 0h-97l-12 65q-42 -42 -81.5 -60.5t-93.5 -18.5q-182 0 -182 204v324h128v-298q0 -125 84 -125q36 0 62.5 16.5t63.5 55.5v351h128v-514zM452 637l-47 -57l-109 85l-109 -85l-44 57l154 138z" />
    <glyph glyph-name="udieresis" unicode="&#xfc;" horiz-adv-x="605" 
d="M534 0h-97l-12 65q-42 -42 -81.5 -60.5t-93.5 -18.5q-182 0 -182 204v324h128v-298q0 -125 84 -125q36 0 62.5 16.5t63.5 55.5v351h128v-514zM469 675q0 -29 -18.5 -47.5t-47.5 -18.5t-47.5 18.5t-18.5 47.5t18.5 47t47.5 18t47.5 -18t18.5 -47zM262 675q0 -29 -18 -47.5
t-48 -18.5q-29 0 -47 18.5t-18 47.5t18 47t47 18q30 0 48 -18t18 -47z" />
    <glyph glyph-name="yacute" unicode="&#xfd;" horiz-adv-x="514" 
d="M498 514q-83 -342 -166 -514q-58 -122 -113 -169.5t-123 -47.5q-29 0 -69 12l3 94h60q28 0 51 24t55 87q-114 252 -177 514h134q43 -182 116 -384h2q65 187 103 384h124zM415 716l-149 -137l-65 42l120 152z" />
    <glyph glyph-name="thorn" unicode="&#xfe;" horiz-adv-x="604" 
d="M562 278q0 -127 -67 -207t-198 -80q-53 0 -99 9v-210h-128v960h128v-285q68 63 153 63q105 0 158 -70t53 -180zM428 263q0 161 -104 161q-68 0 -126 -69v-242q44 -21 97 -21q66 0 99.5 44t33.5 127z" />
    <glyph glyph-name="ydieresis" unicode="&#xff;" horiz-adv-x="514" 
d="M498 514q-83 -342 -166 -514q-58 -122 -113 -169.5t-123 -47.5q-29 0 -69 12l3 94h60q28 0 51 24t55 87q-114 252 -177 514h134q43 -182 116 -384h2q65 187 103 384h124zM437 675q0 -29 -18.5 -47.5t-47.5 -18.5t-47.5 18.5t-18.5 47.5t18.5 47t47.5 18t47.5 -18
t18.5 -47zM230 675q0 -29 -18 -47.5t-48 -18.5q-29 0 -47 18.5t-18 47.5t18 47t47 18q30 0 48 -18t18 -47z" />
    <glyph glyph-name="Grave" horiz-adv-x="350" 
d="M235 807l-35 -64l-200 68l46 86z" />
    <glyph glyph-name="Acute" horiz-adv-x="350" 
d="M235 811l-199 -68l-36 64l189 90z" />
    <glyph glyph-name="Dieresis" horiz-adv-x="450" 
d="M344 809q0 -27 -17.5 -44.5t-45.5 -17.5q-27 0 -44.5 17.5t-17.5 44.5q0 28 17.5 45.5t44.5 17.5q28 0 45.5 -17.5t17.5 -45.5zM125 809q0 -27 -17.5 -44.5t-45.5 -17.5q-27 0 -44.5 17.5t-17.5 44.5q0 28 17.5 45.5t44.5 17.5q28 0 45.5 -17.5t17.5 -45.5z" />
    <glyph glyph-name="Circumflex" horiz-adv-x="450" 
d="M305 807l-33 -62l-121 57l-119 -57l-32 61l152 88z" />
    <glyph glyph-name="Tilde" horiz-adv-x="500" 
d="M377 842q-15 -43 -47 -67t-75 -24q-39 0 -77 20.5t-60 20.5q-35 0 -57 -47l-61 37q15 44 47 68t74 24q39 0 77.5 -20.5t59.5 -20.5q36 0 58 46z" />
    <glyph glyph-name="Caron" horiz-adv-x="450" 
d="M305 834l-151 -89l-154 87l33 62l121 -57l120 57z" />
    <glyph glyph-name="notequal" unicode="&#x2260;" 
d="M498 153h-261l-71 -126l-78 39l49 87h-85v99h141l66 118h-207v99h263l70 125l77 -39l-48 -86h84v-99h-140l-65 -118h205v-99z" />
    <glyph glyph-name="infinity" unicode="&#x221e;" horiz-adv-x="928" 
d="M879 353q0 -74 -50.5 -123.5t-138.5 -49.5q-90 0 -231 103q-67 -49 -121.5 -76t-107.5 -27q-85 0 -133 46.5t-48 119.5t50 122.5t139 49.5t228 -103q139 103 233 103q84 0 132 -46.5t48 -118.5zM770 349q0 35 -20.5 54t-56.5 19q-48 0 -147 -72q36 -25 55.5 -37.5t46 -24
t47.5 -11.5q35 0 55 20t20 52zM380 349q-34 24 -54 37t-46 24.5t-47 11.5q-35 0 -55 -20t-20 -52q0 -34 19.5 -53.5t56.5 -19.5q47 0 146 72z" />
    <glyph glyph-name="lessequal" unicode="&#x2264;" 
d="M500 138l-450 213v103l450 214v-118l-325 -147l325 -146v-119zM500 0h-450v100h450v-100z" />
    <glyph glyph-name="greaterequal" unicode="&#x2265;" 
d="M500 351l-450 -213v117l325 146l-325 147v120l450 -214v-103zM500 0h-450v100h450v-100z" />
    <glyph glyph-name="partialdiff" unicode="&#x2202;" horiz-adv-x="601" 
d="M553 327q0 -168 -69 -254.5t-194 -86.5q-120 0 -183 71t-63 187q0 131 69.5 206t189.5 75q45 0 90 -20q-21 85 -74 122t-145 35l6 99q193 5 283 -107t90 -327zM418 310q0 42 -5 87q-55 23 -99 23q-68 0 -102 -49t-34 -128q0 -70 29 -113.5t86 -43.5q66 0 95.5 52.5
t29.5 171.5z" />
    <glyph glyph-name="summation" unicode="&#x2211;" horiz-adv-x="606" 
d="M560 -204h-515v106l284 367l-272 347v105h488v-111h-328l264 -337l-278 -361h357v-116z" />
    <glyph glyph-name="product" unicode="&#x220f;" horiz-adv-x="867" 
d="M803 606h-103v-810h-135v810h-275v-810h-135v810h-104v115h752v-115z" />
    <glyph glyph-name="pi" unicode="&#x3c0;" horiz-adv-x="648" 
d="M596 0q-36 -11 -88 -11q-129 0 -129 148v280h-152v-417h-128v417h-74v97h570v-97h-88v-248q0 -45 13 -63.5t48 -18.5h28v-87z" />
    <glyph glyph-name="integral" unicode="&#x222b;" horiz-adv-x="413" 
d="M384 634h-46q-47 0 -62 -25t-15 -73v-549q0 -101 -39 -153t-138 -52q-37 0 -74 8v91h46q47 0 62 25t15 73v549q0 101 39 153t138 52q34 0 74 -7v-92z" />
    <glyph glyph-name="Omega" unicode="&#x2126;" horiz-adv-x="780" 
d="M737 0h-293v99q133 85 133 271q0 233 -188 233q-94 0 -140 -64.5t-46 -165.5q0 -99 31.5 -163.5t101.5 -110.5v-99h-293v99h151q-57 42 -91 116.5t-34 162.5q0 150 86.5 241.5t238.5 91.5q151 0 235 -82t84 -243q0 -89 -36 -166t-95 -121h155v-99z" />
    <glyph glyph-name="radical" unicode="&#x221a;" 
d="M541 698l-189 -698h-150l-126 413h-63v101h158l75 -253q24 -88 34 -142h1q12 65 29 133l114 446h117z" />
    <glyph glyph-name="approxequal" unicode="&#x2248;" 
d="M510 403q-70 -68 -140 -68q-43 0 -98.5 30t-90.5 30q-44 0 -93 -42l-43 76q71 65 142 65q44 0 96 -29t91 -29q46 0 94 43zM511 195q-74 -70 -142 -70q-43 0 -98.5 30t-88.5 30q-44 0 -93 -45l-42 77q69 67 141 67q43 0 96.5 -29t88.5 -29q38 0 94 43z" />
    <glyph glyph-name="Delta" unicode="&#x2206;" horiz-adv-x="768" 
d="M734 0h-700l273 698h150zM545 118l-168 434l-166 -434h334z" />
    <glyph glyph-name="lozenge" unicode="&#x25ca;" horiz-adv-x="586" 
d="M553 358l-198 -358h-127l-201 364l198 357h127zM424 356l-137 250l-131 -240l137 -251z" />
    <glyph glyph-name="apple" horiz-adv-x="960" 
d="M880 571q0 -4 -2 -4q-5 1 -42 -2q-67 -3 -90 -7q-6 -5 -7 -17t-3 -16q0 -3 2 -8.5t2 -6.5q4 -5 14 -7q17 2 23 13q0 7 -7 12q-3 2 -10 2.5t-10 4.5q2 3 5 4t9 0t8 -1q10 -3 15 -16q-1 -15 -18 -27q-4 -1 -11 -2.5t-10 -2.5q-35 9 -45 24q-4 1 -1 22l4 22q-1 3 -3.5 3.5
t-5.5 0t-6 0.5l-33 -1q0 1 -1 2t-1 2q2 2 8 3h6q5 -1 11.5 -1t14.5 0.5t12 0.5q5 4 5 17q1 3 3 14.5t6 15.5q4 1 5.5 0.5t4.5 -3.5l4 -4q4 -5 3.5 -17t1.5 -19q0 -5 10.5 -4.5t11.5 0.5q4 0 43.5 1t69.5 5q3 -2 4 -3zM651 504l-3 -2q-35 0 -51 -5q-11 5 -13 8q6 37 1 56
q-2 2 -14 -4q-39 -24 -41 -48q-10 -10 -19 -5q-4 3 -3 15t0 16l-1 31q-2 2 -8 1.5t-10 0.5q-1 1 -4 1t-5 0.5t-2 3.5q7 0 26 1.5t26 -0.5q4 -3 3 -14.5t6 -12.5q8 4 25 14t27 14q2 -1 12 -1t12 -8t2 -23.5v-19.5q1 -1 1.5 -5.5t2.5 -6.5q9 -2 13 0q2 0 7.5 -1t9.5 -1
q3 -3 0 -5zM447 559q3 -19 -7 -31q-4 -3 -12.5 -10t-15 -11t-14.5 -5q-4 1 -6.5 -3.5t-6.5 -1.5q-1 3 -12 2t-13 -1q-14 0 -21 3q-24 21 -18 36q7 21 24 30q32 16 47 13q45 -2 55 -21zM452 664q-12 -13 -29 -8q-13 18 -14 24q-6 9 -16 16t-18 9l-23 5.5t-21 5.5l-31 2
q-2 -2 -6.5 -1.5t-6.5 -0.5q-33 -10 -55 -21q-1 -2 -13.5 -11.5t-13.5 -18.5q-9 -22 -11 -70q0 -3 10.5 -2.5t11.5 0.5q19 2 86 2q1 -1 1.5 -3.5t-0.5 -3.5q-5 -5 -15.5 -0.5t-15.5 2.5q-7 0 -21 -1t-20 0q-4 -1 -12 -1.5t-14 -1.5t-10 -4l-3 -4q-2 -25 1 -63v-14t4 -14
q19 -1 38 1t31 2q2 2 13 -1q1 -1 1 -2v-2l-4 -2q-12 4 -39 0.5t-46 -2.5q-37 -3 -46 -2q-45 -2 -64 3l-2 3q3 3 9 5q4 -2 39 -7q24 3 26 4q-1 19 4.5 49.5t6.5 43.5q-1 2 -3 4q-6 0 -18.5 -0.5t-21 0.5t-16.5 5q-2 5 3 5q18 -5 56 -3l2 3q6 47 15 66v3q47 55 119 62
q31 4 70 -13q2 -1 9.5 -1.5t10.5 -2.5q43 -9 62 -35q2 -2 0 -9zM771 -58l-4 -4q-13 1 -47.5 -2.5t-49.5 -1.5q-31 1 -104 -3.5t-113 -0.5q-24 -4 -96 3q-13 1 -121 1q-68 0 -100 -8q-12 -2 -15 4q0 4 -1 19.5t0 26t4 19.5q1 10 1 37.5t2 42.5q-3 15 -1 44.5t0 44.5
q0 25 3 71.5t4 59.5q2 26 1 71.5t0 71.5q3 6 13.5 6t12.5 1q2 -4 18.5 -2.5t18.5 1.5q12 12 13 1q1 -1 0.5 -6t2.5 -6q-1 -37 -1 -54.5t3.5 -74l4.5 -72.5q22 7 59 28t57 28q3 1 9.5 5.5t11.5 6.5q8 4 10 3q3 -1 4 -3.5t0 -7.5t-1 -6q-10 -29 -5 -61q1 -2 3 -2.5t3.5 0t4 1
t3.5 0.5q6 5 17.5 12l16.5 10q25 15 41 21q36 25 48 29l20 16q1 4 6 7q3 0 11 -6q0 -9 3 -28t3 -29q1 -2 3.5 -2.5t2.5 -1.5q3 -4 -2 -20l2 -2q23 5 61 32t60 32q3 3 10.5 6t11.5 7q3 0 16 9.5t22 2.5q6 0 7 -4q-1 -3 4 -12q-1 -4 0 -14t-2 -13q0 -5 -0.5 -16t0.5 -18.5
t5 -13.5q-1 -4 2.5 -12.5t-0.5 -10.5q2 -25 4 -27q2 -14 -1 -18q1 -5 2.5 -21t4.5 -25v-16q0 -26 6 -74.5t6 -72.5l1 -4q1 -4 0 -5zM425 539q-7 31 -26 34q-1 -3 -3.5 -3.5t-6 0t-4.5 0.5q-15 7 -26 -6q-2 -3 -3.5 -6.5t-1.5 -7t-0.5 -6t1 -6.5t2 -6t3.5 -6.5t3.5 -6t3.5 -6
t4 -5.5q1 -2 3 -2.5t4 0t5 -0.5h9t8 3l8 4q2 2 7 5.5t6.5 5.5t4 7t-0.5 9zM739 -10q-11 24 -18 32q-2 4 -8 12.5t-9.5 15.5t-4.5 15q-7 14 -6 17q5 6 17 13.5t16 12.5l-9 17q-7 -1 -18 -5.5t-13 -4.5q-1 -1 -4 -3t-5 -3.5t-5 -1t-5 2.5q2 53 1 78l-2 3q-6 0 -27 7
q-5 -35 -3 -48q-2 -5 -0.5 -19.5t-1.5 -19.5q1 -18 -1 -51.5t0 -51.5l-1 -7h24q1 0 6 -1.5t6 1.5q0 18 -1 28q0 3 -1 8t-1.5 8.5t1 7t6.5 4.5q4 -2 6 -7.5t3 -7.5q-1 -5 4 -12.5t6 -10.5q7 -4 15 -16.5t14 -16.5q2 0 6 -1.5t7 -0.5q6 0 6 6zM608 179q-4 12 -12 15
q-7 7 -10 0q-13 -18 -4 -30q3 -11 19 -4q9 6 7 19zM610 15q0 13 -1 38.5t-1 37.5v26q-2 5 -13.5 2.5t-14.5 -2.5q-5 0 -5 -24v-26l-3 -26q1 -3 1 -19.5t5 -24.5q15 0 30 5q2 4 2 13zM560 123q-24 -2 -30 -13q-2 -2 -3 -5.5t-2 -6t-3.5 -4.5t-6.5 -1q-2 7 -2 29q-2 2 -7 0
t-8 0q-7 -4 -11 -13q0 -73 4 -111l3 -4q3 -3 11.5 -1.5t11.5 0.5q-2 7 -0.5 21t-1.5 20q6 31 16 44q4 3 13 6t13 7q0 4 1.5 11t2 10.5t-0.5 10.5zM458 30q3 5 4.5 10t1.5 10.5t0.5 9.5t-0.5 11t-1.5 10t-2.5 11.5t-2 10.5q1 4 -4.5 7.5t-12.5 7t-8 4.5q-6 6 -8 -1
q-11 1 -19 -4q-4 -2 -8 -8t-6 -7q-5 -3 -9 3q5 24 -3 74l-2 7h-8q-4 -1 -6 -4.5t-2 -6.5v-7.5t-1 -6.5q-2 -11 -2 -34t-2 -34q1 -11 0 -32.5t0 -31.5q0 -5 -1.5 -17t-0.5 -19q9 -5 31 5q8 2 10.5 0.5t6.5 -7t7 -7.5q8 0 13 1q12 7 24 20.5t11 24.5zM333 34q-4 12 -3 44
t-7 41q-11 7 -23 12l-8 5h-14t-19 -5q-6 -3 -8 -26q8 -3 15.5 -1t16.5 0.5t13 -8.5q0 -2 2 -6t-1 -6q-3 -6 1 -8q5 -7 -3 -9q-5 -2 -14.5 -2t-13.5 -1q-19 -7 -25 -37q-2 -3 -0.5 -10.5t-1.5 -10.5q0 -11 15 -17q5 5 8 2q5 -1 9.5 1.5t10.5 7.5t9 7q6 1 7 -2.5t-0.5 -9
t2.5 -8.5q2 -2 8 0t8 2q2 1 5 1.5t5.5 1.5t4.5 3zM248 181q-12 2 -52 0q-18 -2 -27 -8q-1 -12 -3.5 -35.5t-3.5 -29.5q2 -19 1.5 -54.5t0.5 -55.5q1 0 7 1t7 0q3 1 11.5 -0.5t11.5 0.5q1 11 1 32t1 31q2 5 16 12q2 1 8 0.5t7 2.5l-1 28q-3 4 -21 4q-4 -4 -7 -4q-3 1 -5 3.5
t-2 5.5t-0.5 7t-1.5 6q-2 4 4 10q13 4 39 8l6 4q-1 7 1 17.5t2 14.5zM430 77q14 -30 -9 -55q-1 -1 -12 -7q-6 1 -9.5 5t-4.5 7.5t-2 11t-2 9.5q1 2 2.5 14.5t5.5 17.5q3 2 9 10t12 8l3 -3q-2 -5 2.5 -10.5t4.5 -7.5zM295 42q0 -11 -14 -23l-7 -3q-6 -3 -10 -1q-4 1 -5 3.5
t1 8.5l2 6q0 6 9 10q6 0 10 4q13 -3 14 -5z" />
  </font>
</defs>
</svg>
